<?xml version="1.0" standalone="no"?>
<!DOCTYPE svg PUBLIC "-//W3C//DTD SVG 1.1//EN" "http://www.w3.org/Graphics/SVG/1.1/DTD/svg11.dtd" >
<svg xmlns="http://www.w3.org/2000/svg">
<metadata></metadata>
<defs>
<font id="pluto_sanscond_exlight" horiz-adv-x="1458" >
<font-face units-per-em="2048" ascent="1536" descent="-512" />
<missing-glyph horiz-adv-x="419" />
<glyph horiz-adv-x="0" />
<glyph horiz-adv-x="0" />
<glyph horiz-adv-x="682" />
<glyph unicode=" "  horiz-adv-x="419" />
<glyph unicode="&#x09;" horiz-adv-x="419" />
<glyph unicode="&#xa0;" horiz-adv-x="419" />
<glyph unicode="!" horiz-adv-x="483" d="M160 74q0 94 82 94q39 0 60.5 -24.5t21.5 -69.5q0 -47 -21.5 -72t-60.5 -25q-82 0 -82 97zM197 1391h88l-9 -988h-71z" />
<glyph unicode="&#x22;" horiz-adv-x="745" d="M160 1393h76l-5 -484h-69zM512 1393h74l-2 -484h-70z" />
<glyph unicode="#" horiz-adv-x="1222" d="M84 334v78h186l123 581h-160v78h177l69 322h74v-9l-68 -313h398l69 322h74v-9l-68 -313h181v-78h-197l-123 -581h170v-78h-186l-70 -334h-74v10l68 324h-397l-70 -334h-74v10l68 324h-170zM346 412h397l123 581h-397z" />
<glyph unicode="$" horiz-adv-x="1085" d="M104 1032q0 69 25.5 133t74.5 116t128 86.5t178 41.5v168h68v-166q105 -3 209.5 -35t173.5 -76l-31 -81q-60 42 -159.5 73.5t-192.5 34.5v-586l81 -22q160 -45 241 -123.5t81 -214.5q0 -170 -110 -277t-293 -122v-244h-68v242q-113 3 -219.5 39t-167.5 81l24 84 q64 -44 162.5 -80.5t200.5 -37.5v608l-141 39q-265 74 -265 319zM193 1036q0 -185 208 -243l109 -31v563q-153 -13 -235 -96.5t-82 -192.5zM578 68q139 15 225 97t86 212q0 103 -65 166.5t-201 99.5l-45 12v-587z" />
<glyph unicode="%" horiz-adv-x="1474" d="M84 1065q0 162 81 254t214 92q134 0 216.5 -92t82.5 -254q0 -161 -82 -252.5t-217 -91.5q-133 0 -214 91.5t-81 252.5zM158 1065q0 -128 60.5 -199t160.5 -71q103 0 164 71t61 199q0 130 -61 201t-164 71q-100 0 -160.5 -71.5t-60.5 -200.5zM385 0v10l631 1383h82v-9 l-633 -1384h-80zM795 322q0 163 82 255.5t215 92.5q135 0 217 -92.5t82 -255.5q0 -160 -82 -251t-217 -91q-133 0 -215 91t-82 251zM868 322q0 -128 61.5 -198.5t162.5 -70.5q103 0 164 70.5t61 198.5q0 131 -61 202.5t-164 71.5q-101 0 -162.5 -72t-61.5 -202z" />
<glyph unicode="&#x26;" horiz-adv-x="1253" d="M127 338q0 59 18.5 112t47.5 91.5t71 74t80.5 59t85.5 46.5l-2 4q-95 109 -126 158q-66 103 -66 202q0 148 90.5 238t246.5 90q146 0 241 -91t95 -232q0 -232 -229 -338l-119 -58l348 -397q130 191 183 471l73 -35q-64 -308 -202 -497l208 -238v-14h-106l-158 182 q-166 -184 -387 -184q-181 0 -287 96t-106 260zM217 344q0 -127 85 -204t230 -77q177 0 322 164l-369 430q-57 -28 -97 -52t-83 -62t-65.5 -88t-22.5 -111zM322 1083q0 -22 6 -46.5t12 -43.5t22 -45.5t24 -40t30.5 -42.5t28.5 -36.5t32 -37t27 -31.5l2 -4l139 63 q178 81 178 266q0 102 -73.5 174t-176.5 72q-120 0 -185.5 -68t-65.5 -180z" />
<glyph unicode="'" horiz-adv-x="395" d="M160 1393h76l-5 -484h-69z" />
<glyph unicode="(" horiz-adv-x="509" d="M119 535q0 176 27.5 338t70.5 277.5t81.5 190.5t74.5 123l57 -39q-35 -54 -68.5 -126t-72.5 -183.5t-62.5 -263.5t-23.5 -317q0 -164 23.5 -315.5t62.5 -263.5t72.5 -185t68.5 -127l-57 -39q-36 48 -74.5 123.5t-81.5 191.5t-70.5 278t-27.5 337z" />
<glyph unicode=")" horiz-adv-x="509" d="M80 -356q35 54 68.5 127t72.5 185t62.5 263.5t23.5 315.5q0 165 -23.5 317t-62.5 263.5t-72.5 183.5t-68.5 126l57 39q36 -48 74.5 -123t81.5 -190.5t70.5 -277.5t27.5 -338q0 -175 -27.5 -337t-70.5 -278t-81.5 -191.5t-74.5 -123.5z" />
<glyph unicode="*" horiz-adv-x="872" d="M119 1120l22 68l260 -76l-4 281h78l-4 -281l260 76l23 -68l-265 -69l146 -244l-62 -35l-139 244l-137 -244l-59 35l139 246z" />
<glyph unicode="+" horiz-adv-x="1015" d="M115 580v77h356v422h74v-422h356v-77h-356v-420h-74v420h-356z" />
<glyph unicode="," horiz-adv-x="471" d="M152 61q0 49 22 75t62 26t63 -29t23 -72q0 -75 -42 -213t-73 -194l-55 24l84 295q-40 3 -62 28t-22 60z" />
<glyph unicode="-" horiz-adv-x="950" d="M158 580v79h635v-79h-635z" />
<glyph unicode="." horiz-adv-x="468" d="M154 74q0 46 20 70t57 24q41 0 63.5 -24t22.5 -70q0 -47 -22.5 -72t-63.5 -25q-37 0 -57 25t-20 72z" />
<glyph unicode="/" horiz-adv-x="856" d="M72 0v10l633 1383h79v-9l-632 -1384h-80z" />
<glyph unicode="0" horiz-adv-x="1251" d="M129 694q0 159 29.5 288.5t88.5 226.5t155 150.5t223 53.5q103 0 185.5 -35t140 -98t96 -153.5t56 -198t17.5 -234.5q0 -126 -17.5 -232.5t-56 -196.5t-96 -152.5t-140 -97.5t-185.5 -35q-127 0 -223 53t-155 150t-88.5 225t-29.5 286zM217 694q0 -139 23 -250.5 t70.5 -197t127.5 -132t187 -46.5q109 0 189 46.5t127.5 132t70 197t22.5 250.5q0 141 -22.5 253.5t-70 199t-127.5 133.5t-189 47q-107 0 -187 -47t-127.5 -133.5t-70.5 -199t-23 -253.5z" />
<glyph unicode="1" horiz-adv-x="835" d="M59 1126l504 267h72v-1393h-90v1288l-453 -235z" />
<glyph unicode="2" horiz-adv-x="1105" d="M117 948q5 211 115 338t311 127q136 0 231.5 -59t139.5 -154.5t44 -216.5q0 -135 -61.5 -244.5t-194.5 -238.5l-438 -418h733v-82h-864v76l504 477q121 113 176 209t55 217q0 156 -84.5 252t-244.5 96q-163 0 -249.5 -107t-88.5 -282z" />
<glyph unicode="3" horiz-adv-x="1132" d="M133 78l27 84q181 -101 368 -101q164 0 275.5 87.5t111.5 236.5q0 135 -84.5 215t-240.5 80h-322v82h322q132 0 207 84t75 198q0 93 -49.5 159.5t-126.5 97t-172 30.5q-106 0 -200.5 -32t-155.5 -72l-29 78q182 108 391 108q198 0 315.5 -94.5t117.5 -265.5 q0 -120 -66 -214t-174 -112q133 -27 208 -116t75 -234q0 -185 -131 -291t-345 -106q-191 0 -397 98z" />
<glyph unicode="4" horiz-adv-x="1255" d="M70 322v69l716 1002h115v-996h273v-75h-273v-322h-90v322h-741zM166 397h645v906z" />
<glyph unicode="5" horiz-adv-x="1120" d="M106 84l29 82q171 -105 375 -105q78 0 147.5 20.5t128 62.5t93 116.5t34.5 173.5q0 85 -30.5 146.5t-86 96.5t-124.5 51.5t-156 16.5h-332l-6 9l45 639h744v-82h-666l-35 -490h258q220 0 350 -94t130 -291q0 -119 -40.5 -209t-110.5 -142.5t-155 -78.5t-182 -26 q-223 0 -410 104z" />
<glyph unicode="6" horiz-adv-x="1214" d="M127 698q0 323 139.5 519t386.5 196q128 0 234 -42.5t166 -96.5l-39 -76q-53 53 -145.5 93t-204.5 40q-212 0 -330.5 -173.5t-118.5 -459.5q0 -50 2 -73q19 36 42.5 71t65 79t88.5 77t113 55.5t138 22.5q201 0 318.5 -123t117.5 -342q0 -214 -128 -349.5t-323 -135.5 q-163 0 -282 89.5t-179.5 251t-60.5 377.5zM227 526q31 -213 141 -336.5t279 -123.5q155 0 259 114t104 285q0 184 -98.5 284.5t-260.5 100.5q-72 0 -138 -27t-110 -63.5t-84 -86.5t-58.5 -82.5t-33.5 -64.5z" />
<glyph unicode="7" horiz-adv-x="954" d="M70 1311v82h837v-74l-545 -1319h-100v10l543 1301h-735z" />
<glyph unicode="8" horiz-adv-x="1196" d="M127 377q0 146 82.5 235.5t228.5 114.5q-121 18 -195.5 111.5t-74.5 214.5q0 171 117 265.5t315 94.5q197 0 312.5 -94.5t115.5 -265.5q0 -121 -73.5 -214.5t-194.5 -111.5q146 -25 228.5 -114.5t82.5 -235.5q0 -184 -130 -290.5t-341 -106.5q-214 0 -343.5 106 t-129.5 291zM217 385q0 -149 108.5 -237.5t274.5 -88.5q163 0 272 89t109 237q0 139 -94 219t-287 80q-191 0 -287 -80.5t-96 -218.5zM256 1047q0 -55 19.5 -104.5t59 -90.5t108 -65.5t157.5 -24.5t156.5 24.5t106.5 65.5t58 90.5t19 104.5q0 138 -93.5 213t-246.5 75 q-154 0 -249 -75t-95 -213z" />
<glyph unicode="9" horiz-adv-x="1214" d="M115 928q0 214 127.5 349.5t322.5 135.5q163 0 282 -90t179.5 -251.5t60.5 -377.5q0 -212 -60.5 -372t-180.5 -251t-285 -91q-128 0 -233 42.5t-166 96.5l39 76q53 -53 145.5 -93.5t204.5 -40.5q212 0 330 173.5t118 459.5q0 12 -1 37t-1 37q-20 -37 -43.5 -71.5t-65 -79 t-88 -77t-112.5 -55t-137 -22.5q-201 0 -318.5 123t-117.5 342zM205 928q0 -184 98.5 -284.5t259.5 -100.5q71 0 137 26.5t110.5 63t84 86t58.5 82.5t34 65q-33 214 -142 337.5t-278 123.5q-155 0 -258.5 -113.5t-103.5 -285.5z" />
<glyph unicode=":" horiz-adv-x="477" d="M158 74q0 45 20.5 69.5t57.5 24.5q40 0 61.5 -24t21.5 -70q0 -47 -21.5 -72t-61.5 -25q-37 0 -57.5 25t-20.5 72zM158 1006q0 45 20.5 69.5t57.5 24.5q40 0 61.5 -24t21.5 -70q0 -47 -21.5 -72t-61.5 -25q-37 0 -57.5 25t-20.5 72z" />
<glyph unicode=";" horiz-adv-x="495" d="M166 61q0 49 21.5 75t60.5 26q40 0 63 -29t23 -72q0 -75 -42 -212t-73 -193l-53 25l82 292q-38 3 -60 28t-22 60zM168 1006q0 45 20.5 69.5t57.5 24.5q40 0 62 -24.5t22 -69.5q0 -47 -22 -72t-62 -25q-37 0 -57.5 25t-20.5 72z" />
<glyph unicode="&#x3c;" horiz-adv-x="1021" d="M92 582v75l776 437h9v-80l-707 -393l707 -394v-80h-9z" />
<glyph unicode="=" horiz-adv-x="1105" d="M162 291v78h784v-78h-784zM162 870v78h784v-78h-784z" />
<glyph unicode="&#x3e;" horiz-adv-x="1021" d="M143 147v80l709 394l-709 393v80h11l776 -437v-75l-776 -435h-11z" />
<glyph unicode="?" horiz-adv-x="825" d="M84 1219q103 194 326 194q142 0 229.5 -91t87.5 -230q0 -88 -29 -160.5t-92 -147.5l-147 -178q-38 -46 -53 -77t-15 -68q0 -35 6 -58h-78q-10 38 -10 72q0 35 12 67t26.5 53t47.5 62l146 179q53 63 74.5 120.5t21.5 133.5q0 103 -66.5 173t-177.5 70q-99 0 -165.5 -49 t-102.5 -127zM283 74q0 94 79 94q82 0 82 -94q0 -97 -82 -97q-79 0 -79 97z" />
<glyph unicode="@" horiz-adv-x="1769" d="M111 539q0 211 60 387t165.5 295.5t251 185.5t315.5 66q228 0 404.5 -99t275 -284t98.5 -428q0 -162 -31.5 -288t-84.5 -201t-117.5 -112.5t-136.5 -37.5q-76 0 -109 29.5t-49 97.5q-46 -59 -121.5 -93t-165.5 -34q-183 0 -293 138t-110 357q0 222 110.5 363t292.5 141 q191 0 283 -115v99h86v-779q0 -70 20.5 -101.5t75.5 -31.5q40 0 78.5 20t75 65t64.5 109t44.5 159.5t16.5 209.5q0 343 -194 543.5t-513 200.5q-156 0 -288 -59t-228.5 -168t-150.5 -272t-54 -363q0 -199 53.5 -362t149 -273t228.5 -170t290 -60q182 0 336 88l27 -65 q-168 -94 -363 -94q-172 0 -318 66t-251 186t-164 296t-59 388zM551 518q0 -183 91.5 -299.5t242.5 -116.5q82 0 151 38t113 96v581q-42 56 -110.5 90.5t-153.5 34.5q-151 0 -242.5 -118.5t-91.5 -305.5z" />
<glyph unicode="A" horiz-adv-x="1232" d="M57 0l518 1393h99l487 -1393h-90l-123 356h-669l-134 -356h-88zM307 432h615l-299 866z" />
<glyph unicode="B" horiz-adv-x="1196" d="M199 0v1393h403q184 0 285.5 -89t101.5 -268q0 -120 -58 -199t-161 -114q313 -50 313 -361q0 -170 -102 -266t-299 -96h-483zM289 82h385q155 0 236 75t81 210q0 153 -94 229t-264 76h-344v-590zM289 758h291q146 0 232.5 71t86.5 203q0 141 -80 210t-225 69h-305v-553z " />
<glyph unicode="C" horiz-adv-x="1263" d="M123 696q0 334 158.5 525.5t423.5 191.5q141 0 256.5 -62t193.5 -165l-55 -62q-70 91 -169 147t-220 56q-231 0 -363.5 -167t-132.5 -464q0 -296 132.5 -463t363.5 -167q121 0 220.5 55.5t168.5 146.5l55 -61q-78 -103 -193.5 -165t-256.5 -62q-265 0 -423.5 191.5 t-158.5 524.5z" />
<glyph unicode="D" horiz-adv-x="1374" d="M199 0v1393h440q132 -1 243.5 -47t193.5 -132.5t128.5 -220t46.5 -299.5q0 -165 -46.5 -297.5t-128.5 -218.5t-193.5 -132t-243.5 -46h-440zM289 82h344q237 0 382.5 161t145.5 451q0 293 -145.5 455t-382.5 162h-344v-1229z" />
<glyph unicode="E" horiz-adv-x="1204" d="M199 0v1393h891v-84h-803v-539h676v-82h-676v-606h803v-82h-891z" />
<glyph unicode="F" horiz-adv-x="1138" d="M199 0v1393h856v-84h-768v-619h676v-82h-676v-608h-88z" />
<glyph unicode="G" horiz-adv-x="1374" d="M119 694q0 166 49.5 303t135 227t200.5 139.5t246 49.5q139 0 243.5 -48t200.5 -144l-49 -70q-83 87 -176 131.5t-211 44.5q-115 0 -215 -43.5t-173.5 -123t-116 -200t-42.5 -266.5q0 -145 42.5 -265t116 -198.5t172.5 -121.5t212 -43q112 0 220.5 38t178.5 99v424h-455 v82h541v-559q-86 -73 -221 -121.5t-268 -48.5q-131 0 -246 49t-200.5 139t-135 226t-49.5 300z" />
<glyph unicode="H" d="M199 0v1393h90v-652h878v652h90v-1393h-90v657h-878v-657h-90z" />
<glyph unicode="I" horiz-adv-x="489" d="M199 0v1393h90v-1393h-90z" />
<glyph unicode="J" horiz-adv-x="1146" d="M61 457l86 10q12 -205 101 -305.5t260 -100.5q176 0 269 106t93 312v914h91v-912q0 -238 -119 -372t-334 -134q-210 0 -322.5 124t-124.5 358z" />
<glyph unicode="K" horiz-adv-x="1183" d="M199 0v1393h90v-668h162l546 668h99v-15l-570 -698l621 -668v-12h-113l-590 641h-155v-641h-90z" />
<glyph unicode="L" horiz-adv-x="1026" d="M199 0v1393h90v-1311h696v-82h-786z" />
<glyph unicode="M" horiz-adv-x="1646" d="M199 0v1393h88l536 -779l537 779h86v-1393h-90v1241l-520 -754h-25l-522 754v-1241h-90z" />
<glyph unicode="N" horiz-adv-x="1452" d="M199 0v1393h82l882 -1248v1248h90v-1393h-84l-880 1243v-1243h-90z" />
<glyph unicode="O" d="M119 694q0 213 79 377.5t217 253t312 88.5q269 0 439.5 -198t170.5 -521q0 -320 -170.5 -517t-439.5 -197q-265 0 -436.5 197.5t-171.5 516.5zM209 694q0 -286 145 -457t373 -171q229 0 375.5 171t146.5 457q0 289 -146 461t-376 172q-228 0 -373 -172t-145 -461z" />
<glyph unicode="P" horiz-adv-x="1191" d="M199 0v1393h487q84 0 158 -29.5t133 -87t93 -151.5t34 -214q0 -214 -123 -343.5t-295 -129.5h-397v-438h-90zM289 520h383q143 0 241.5 106t98.5 285q0 194 -97 297t-243 103h-383v-791z" />
<glyph unicode="Q" d="M119 694q0 213 79 377.5t217 253t312 88.5q269 0 439.5 -198t170.5 -521q0 -283 -134 -471.5t-355 -230.5q14 -15 48 -52.5t57.5 -61.5t63 -57.5t74.5 -54t83 -35t98 -14.5q114 0 198 35l15 -82q-97 -39 -217 -39q-82 0 -159.5 33t-135 81.5t-103.5 97.5t-83.5 89 t-57.5 48h-2q-265 0 -436.5 197.5t-171.5 516.5zM207 694q0 -286 146 -457t374 -171q229 0 375.5 171t146.5 457q0 288 -146 459.5t-376 171.5q-228 0 -374 -171.5t-146 -459.5z" />
<glyph unicode="R" horiz-adv-x="1234" d="M199 0v1393h495q84 0 158.5 -28t132.5 -81t91.5 -137.5t33.5 -190.5q0 -130 -56.5 -227.5t-148.5 -147t-205 -51.5l463 -518v-12h-108l-467 530h-299v-530h-90zM289 608h389q147 0 244.5 91.5t97.5 256.5q0 89 -27.5 158t-75.5 111.5t-108.5 64t-130.5 21.5h-389v-703z " />
<glyph unicode="S" horiz-adv-x="1101" d="M109 96l22 88q68 -43 177 -80.5t212 -37.5q166 0 274.5 82t108.5 225q0 103 -63.5 170t-196.5 102l-242 66q-278 75 -278 323q0 74 26.5 139.5t78 119.5t138.5 86t199 32q109 0 218 -32.5t180 -78.5l-31 -81q-62 43 -166.5 75.5t-198.5 32.5q-91 0 -161.5 -24.5 t-111.5 -66t-62 -92.5t-21 -108q0 -95 55 -153.5t168 -89.5l242 -70q159 -46 238 -127.5t79 -220.5q0 -180 -131 -287.5t-340 -107.5q-113 0 -228.5 36.5t-184.5 79.5z" />
<glyph unicode="T" horiz-adv-x="1085" d="M39 1309v84h1010v-84h-445v-1309h-90v1309h-475z" />
<glyph unicode="U" horiz-adv-x="1368" d="M184 551v842h90v-838q0 -230 101 -362t307 -132q105 0 185 38.5t129 107t73.5 157t24.5 193.5v836h90v-842q0 -119 -31 -221.5t-91 -182.5t-158 -126t-222 -46q-245 0 -371.5 156t-126.5 420z" />
<glyph unicode="V" horiz-adv-x="1236" d="M72 1393h94l446 -1299l473 1299h97l-518 -1393h-105z" />
<glyph unicode="W" horiz-adv-x="1898" d="M72 1393h94l446 -1291l299 805l-168 486h95l438 -1282l469 1282h96l-516 -1393h-96l-279 803l-297 -803h-94z" />
<glyph unicode="X" horiz-adv-x="1200" d="M61 0v10l476 686l-476 688v9h105l434 -631l432 631h107v-9l-475 -688l475 -686v-10h-109l-430 631l-432 -631h-107z" />
<glyph unicode="Y" horiz-adv-x="1210" d="M59 1384v9h101l446 -709l447 709h100v-9l-504 -782v-602h-88v600z" />
<glyph unicode="Z" horiz-adv-x="1046" d="M92 0v74l748 1237h-748v82h862v-74l-747 -1237h747v-82h-862z" />
<glyph unicode="[" horiz-adv-x="595" d="M182 -385v1839h330v-80h-250v-1679h250v-80h-330z" />
<glyph unicode="\" horiz-adv-x="856" d="M72 1384v9h80l632 -1383v-10h-79z" />
<glyph unicode="]" horiz-adv-x="595" d="M84 -305h248v1679h-248v80h330v-1839h-330v80z" />
<glyph unicode="^" horiz-adv-x="966" d="M129 846v10l313 537h74l320 -537v-10h-84l-273 473l-266 -473h-84z" />
<glyph unicode="_" horiz-adv-x="1181" d="M156 -92h870v-80h-870v80z" />
<glyph unicode="`" horiz-adv-x="1044" d="M403 1518h95l143 -271h-84z" />
<glyph unicode="a" horiz-adv-x="1052" d="M98 307q0 98 38 171.5t105.5 118t154.5 66t192 21.5q102 0 205 -29v62q0 145 -72 218t-207 73q-169 0 -301 -72l-18 78q64 34 157 55t172 21q171 0 264 -96.5t93 -278.5v-715h-88v123q-143 -143 -342 -143q-160 0 -256.5 88.5t-96.5 238.5zM190 313q0 -119 77 -187.5 t204 -68.5q187 0 322 150v379q-76 26 -201 26q-86 0 -157 -17t-127 -51.5t-87 -93.5t-31 -137z" />
<glyph unicode="b" horiz-adv-x="1155" d="M180 0v1454h88v-514q56 66 140.5 108t181.5 42q203 0 324.5 -148t121.5 -405t-121.5 -407t-324.5 -150q-99 0 -182 41.5t-140 107.5v-129h-88zM268 215q47 -63 128.5 -108.5t170.5 -45.5q174 0 276.5 126t102.5 343q0 222 -102.5 350t-276.5 128q-90 0 -171.5 -46.5 t-127.5 -111.5v-635z" />
<glyph unicode="c" horiz-adv-x="1040" d="M119 537q0 257 129 410t342 153q202 0 342 -160l-47 -68q-121 144 -295 144t-277.5 -129.5t-103.5 -349.5q0 -221 104 -351.5t279 -130.5q172 0 293 144l47 -68q-140 -160 -342 -160q-213 0 -342 154.5t-129 411.5z" />
<glyph unicode="d" horiz-adv-x="1157" d="M121 537q0 257 122.5 405t327.5 148q95 0 177 -41t141 -107v512h90v-1454h-90v129q-56 -67 -138.5 -108t-179.5 -41q-204 0 -327 150t-123 407zM211 530q0 -217 103 -343t276 -126q89 0 170 44t129 106v643q-48 65 -128 109.5t-171 44.5q-174 0 -276.5 -128t-102.5 -350z " />
<glyph unicode="e" horiz-adv-x="1112" d="M119 532q0 250 128.5 409t344.5 159q101 0 179.5 -35t125.5 -97t70.5 -140.5t23.5 -170.5q0 -88 -16 -157h-768q2 -101 26.5 -181.5t72.5 -141t125.5 -93.5t180.5 -33q178 0 324 135l41 -73q-155 -142 -373 -142q-125 0 -219.5 41.5t-152 118t-85.5 177t-28 224.5z M209 575h692q8 54 8 91q0 73 -19 135.5t-57 111.5t-99.5 77t-141.5 28q-172 0 -274.5 -123t-108.5 -320z" />
<glyph unicode="f" horiz-adv-x="804" d="M88 924v75h197v152q0 154 70.5 239t207.5 85q70 0 130.5 -30.5t99.5 -72.5l-33 -74q-88 97 -187 97q-200 0 -200 -242v-154h360v-75h-360v-924h-88v924h-197z" />
<glyph unicode="g" horiz-adv-x="1157" d="M123 573q0 231 122 374t324 143q97 0 179 -42.5t139 -109.5v133h90v-1032q0 -113 -32 -200t-88 -139.5t-127.5 -79t-154.5 -26.5q-63 0 -120 11.5t-104 33.5t-69 35t-55 35l25 84q157 -117 315 -117q139 0 229.5 87t90.5 266v180q-59 -65 -141.5 -106.5t-176.5 -41.5 q-201 0 -323.5 142t-122.5 370zM213 573q0 -194 103 -312t276 -118q90 0 165.5 46t129.5 110v547q-133 162 -293 162q-174 0 -277.5 -118t-103.5 -317z" />
<glyph unicode="h" horiz-adv-x="1171" d="M180 0v1454h88v-584q52 105 145.5 162.5t219.5 57.5q181 0 273.5 -108.5t92.5 -313.5v-668h-88v657q0 168 -75.5 257.5t-225.5 89.5q-130 0 -219 -77.5t-123 -201.5v-725h-88z" />
<glyph unicode="i" horiz-adv-x="448" d="M160 1378q0 70 65 70q64 0 64 -70q0 -71 -64 -71q-65 0 -65 71zM180 0v1071h88v-1071h-88z" />
<glyph unicode="j" horiz-adv-x="448" d="M2 -338q63 38 100 78t57.5 101t20.5 147v1083h88v-1083q0 -148 -54.5 -240.5t-162.5 -150.5zM162 1378q0 70 63 70q64 0 64 -70q0 -71 -64 -71q-63 0 -63 71z" />
<glyph unicode="k" horiz-adv-x="966" d="M180 0v1454h88v-862l506 479h105v-14l-521 -488l545 -555v-14h-110l-525 543v-543h-88z" />
<glyph unicode="l" horiz-adv-x="555" d="M190 195v1259h89v-1245q0 -84 26 -116t80 -32q60 0 131 48l14 -74q-75 -55 -168 -55q-85 0 -128.5 50t-43.5 165z" />
<glyph unicode="m" horiz-adv-x="1814" d="M180 0v1071h88v-192q105 211 346 211q264 0 332 -238q99 238 338 238q186 0 273.5 -100.5t87.5 -303.5v-686h-91v676q0 168 -68.5 248t-219.5 80q-223 0 -301 -267q0 -8 1 -25.5t1 -25.5v-686h-90v676q0 328 -287 328q-127 0 -207.5 -74.5t-114.5 -200.5v-729h-88z" />
<glyph unicode="n" horiz-adv-x="1171" d="M180 0v1071h88v-201q52 105 145.5 162.5t219.5 57.5q181 0 273.5 -108.5t92.5 -313.5v-668h-88v657q0 168 -75.5 257.5t-225.5 89.5q-130 0 -219 -77.5t-123 -201.5v-725h-88z" />
<glyph unicode="o" horiz-adv-x="1202" d="M119 532q0 259 132.5 413.5t346.5 154.5q218 0 351.5 -154.5t133.5 -413.5q0 -256 -133.5 -408.5t-351.5 -152.5q-214 0 -346.5 152.5t-132.5 408.5zM207 532q0 -219 108 -348t283 -129q180 0 288.5 128.5t108.5 348.5q0 222 -108.5 352t-288.5 130q-175 0 -283 -130 t-108 -352z" />
<glyph unicode="p" horiz-adv-x="1155" d="M180 -385v1456h88v-127q57 67 139 108.5t179 41.5q204 0 327 -150t123 -407t-122.5 -405t-327.5 -148q-95 0 -178.5 40.5t-139.5 104.5v-514h-88zM268 217q46 -63 127.5 -107t171.5 -44q174 0 276.5 127.5t102.5 349.5q0 217 -102.5 342t-276.5 125q-90 0 -171.5 -43.5 t-127.5 -106.5v-643z" />
<glyph unicode="q" horiz-adv-x="1157" d="M121 530q0 257 121.5 407t324.5 150q98 0 181 -41.5t141 -109.5v135h90v-1456h-90v510q-59 -65 -142.5 -106.5t-179.5 -41.5q-203 0 -324.5 148t-121.5 405zM211 537q0 -220 103 -348t276 -128q91 0 170.5 45t128.5 109v635q-49 65 -129 110.5t-170 45.5 q-173 0 -276 -125.5t-103 -343.5z" />
<glyph unicode="r" horiz-adv-x="759" d="M180 0v1071h88v-215q40 117 103 175.5t164 58.5q103 0 176 -70l-29 -78q-72 62 -154 62q-99 0 -160 -76.5t-100 -216.5v-711h-88z" />
<glyph unicode="s" horiz-adv-x="933" d="M113 68l22 84q150 -93 318 -93q128 0 206 65t78 161q0 78 -53.5 125t-155.5 77l-149 43q-133 40 -195.5 99.5t-62.5 173.5q0 125 96 206t258 81q81 0 174 -23.5t146 -52.5l-25 -80q-56 31 -135.5 52.5t-157.5 21.5q-125 0 -195.5 -56.5t-70.5 -146.5q0 -84 48.5 -125.5 t156.5 -73.5l149 -43q130 -38 196 -103t66 -169q0 -133 -103 -222t-269 -89q-101 0 -190.5 26t-151.5 62z" />
<glyph unicode="t" horiz-adv-x="831" d="M74 993v78h188l8 272h76v-272h391v-78h-391v-721q0 -211 182 -211q54 0 118.5 25.5t107.5 63.5l30 -78q-133 -92 -272 -92q-254 0 -254 284v729h-184z" />
<glyph unicode="u" horiz-adv-x="1169" d="M170 403v668h88v-657q0 -168 75.5 -257t225.5 -89q130 0 219 77t123 201v725h88v-1071h-88v201q-52 -105 -145 -162t-219 -57q-181 0 -274 108.5t-93 312.5z" />
<glyph unicode="v" horiz-adv-x="1095" d="M74 1071h98l377 -987l375 987h98l-418 -1071h-112z" />
<glyph unicode="w" horiz-adv-x="1748" d="M80 1071h100l320 -975l321 975h109l317 -975l326 975h98l-366 -1071h-111l-317 971l-326 -971h-109z" />
<glyph unicode="x" horiz-adv-x="1005" d="M78 0v10l360 522l-360 531v8h98l326 -481l327 481h99v-8l-365 -531l365 -522v-10h-103l-323 475l-322 -475h-102z" />
<glyph unicode="y" horiz-adv-x="1073" d="M37 -342l20 72q81 -56 183 -56q88 0 139 56.5t94 179.5l31 94l-445 1067h99l389 -971l348 971h92l-432 -1182q-57 -151 -124.5 -223t-186.5 -72q-120 0 -207 64z" />
<glyph unicode="z" horiz-adv-x="925" d="M102 0v74l609 919h-609v78h721v-74l-608 -919h608v-78h-721z" />
<glyph unicode="{" horiz-adv-x="532" d="M104 498v65q87 0 126.5 39.5t39.5 116.5q0 76 -28 174.5t-56 191t-28 154.5q0 90 51.5 152.5t159.5 62.5h57v-74h-47q-69 0 -107.5 -43t-38.5 -112q0 -44 17.5 -112t39 -129t39 -137.5t17.5 -135.5q0 -79 -29.5 -121.5t-97.5 -59.5q69 -17 98 -60t29 -128 q0 -58 -17.5 -133.5t-39 -136t-39 -128.5t-17.5 -112q0 -70 38.5 -114t107.5 -44h47v-71h-57q-109 0 -160 62t-51 155q0 62 28 154.5t56 191.5t28 176q0 78 -39.5 117t-126.5 39z" />
<glyph unicode="|" horiz-adv-x="440" d="M182 -385v1839h76v-1839h-76z" />
<glyph unicode="}" horiz-adv-x="532" d="M106 -326h48q67 0 106 44.5t39 113.5q0 44 -17.5 112t-39 128.5t-39 136t-17.5 133.5q0 85 28.5 128t98.5 60q-69 17 -98 59.5t-29 121.5q0 59 17.5 135.5t39 137.5t39 129t17.5 112q0 69 -38.5 112t-106.5 43h-48v74h58q108 0 159.5 -62.5t51.5 -152.5 q0 -62 -28.5 -154.5t-56.5 -191t-28 -174.5q0 -77 39.5 -116.5t126.5 -39.5v-65q-87 0 -126.5 -39t-39.5 -117q0 -77 28 -176t56.5 -191.5t28.5 -154.5q0 -93 -51 -155t-160 -62h-58v71z" />
<glyph unicode="~" horiz-adv-x="923" d="M154 567q8 77 50.5 131t108.5 54q33 0 67.5 -19.5t63.5 -47t56.5 -55.5t56 -47.5t53.5 -19.5q91 0 115 146l49 -35q-12 -82 -55 -133.5t-107 -51.5q-33 0 -66 19.5t-60.5 46.5t-54.5 54.5t-57 47t-59 19.5q-42 0 -73.5 -37t-38.5 -107z" />
<glyph unicode="&#xa1;" horiz-adv-x="454" d="M143 1006q0 45 22 69.5t62 24.5q80 0 80 -94q0 -97 -80 -97q-40 0 -62 25.5t-22 71.5zM182 -313l8 987h74l8 -987h-90z" />
<glyph unicode="&#xa2;" horiz-adv-x="1087" d="M119 537q0 257 129 410t342 153q44 0 96 -10l49 210l60 -16l-50 -211q100 -37 187 -133l-47 -68q-71 84 -160 119l-217 -928q36 -8 84 -8q172 0 293 144l47 -68q-140 -160 -342 -160q-42 0 -103 11l-59 -256l-61 18l59 256q-142 52 -224.5 193.5t-82.5 343.5zM209 537 q0 -171 62 -289.5t175 -165.5l220 926q-46 8 -76 8q-174 0 -277.5 -129.5t-103.5 -349.5z" />
<glyph unicode="&#xa3;" horiz-adv-x="1118" d="M98 158q0 82 49 135t125 53q26 0 55.5 -9t41.5 -20q4 11 0 54t-4 56.5t-7.5 59.5t-10.5 62t-12.5 64.5t-12.5 66.5h-175v68h162q-24 147 -24 268q0 176 85.5 286.5t247.5 110.5q63 0 120 -19.5t98.5 -51t68 -59t47.5 -56.5l-39 -76q-56 76 -94 107q-82 69 -188 69 q-125 0 -191.5 -90.5t-66.5 -235.5q0 -99 22 -253h426v-68h-413q3 -15 9 -51t8.5 -53t7.5 -49t7.5 -51t5 -47t3.5 -49t1 -45t-1 -46q24 -16 67 -58t78.5 -77.5t80.5 -64t79 -28.5q91 0 130.5 94t37.5 269h79q10 -444 -233 -444q-45 0 -96.5 29.5t-89.5 65.5t-83.5 80 t-68.5 60q-38 -235 -184 -235q-70 0 -109 49.5t-39 128.5zM160 156q0 -48 20 -80.5t64 -32.5q102 0 121 207q-41 33 -91 33q-49 0 -81.5 -34.5t-32.5 -92.5z" />
<glyph unicode="&#xa4;" horiz-adv-x="1077" d="M147 283l117 114q-78 91 -78 219q0 131 78 222l-117 116l58 56l117 -119q88 72 213 72q131 0 219 -76l120 123l58 -56l-125 -123q76 -89 76 -215q0 -119 -74 -213l123 -120l-58 -56l-120 121q-90 -74 -219 -74q-127 0 -216 70l-114 -117zM260 616q0 -118 77 -195t198 -77 q122 0 198 77t76 195q0 120 -76 198.5t-198 78.5q-121 0 -198 -79t-77 -198z" />
<glyph unicode="&#xa5;" horiz-adv-x="1050" d="M84 1384v9h94l346 -713l346 713h95v-9l-377 -739h295v-67h-316v-166h316v-68h-316v-344h-88v344h-313v68h313v166h-313v67h291z" />
<glyph unicode="&#xa6;" horiz-adv-x="450" d="M186 326h78v-711h-78v711zM186 768v686h78v-686h-78z" />
<glyph unicode="&#xa7;" horiz-adv-x="1136" d="M133 600q0 97 55.5 177t165.5 118l-4 2q-93 15 -153 69.5t-60 151.5q0 123 114 209t314 86q225 0 414 -90l-27 -78q-68 36 -174.5 63t-216.5 27q-157 0 -246.5 -63.5t-89.5 -151.5q0 -121 156 -149l301 -56q153 -30 237.5 -110.5t84.5 -204.5q0 -102 -59 -176.5 t-167 -108.5q109 -30 167.5 -82t58.5 -143q0 -135 -124.5 -213t-318.5 -78q-123 0 -232.5 29t-176.5 66l22 75q71 -35 174 -62.5t215 -27.5q154 0 252 55.5t98 153.5q0 33 -11.5 58t-30 41.5t-51.5 31t-64.5 23.5t-81.5 20l-281 60q-138 31 -199 95.5t-61 182.5zM213 606 q0 -90 47 -139t160 -74l190 -41q141 5 225.5 69t84.5 173q0 98 -68 161.5t-199 86.5l-135 24q-152 -6 -228.5 -83t-76.5 -177z" />
<glyph unicode="&#xa8;" horiz-adv-x="1044" d="M244 1376q0 70 63 70q62 0 62 -70q0 -35 -17 -52t-45 -17q-63 0 -63 69zM678 1376q0 70 63 70q60 0 60 -70q0 -35 -16.5 -52t-43.5 -17q-63 0 -63 69z" />
<glyph unicode="&#xa9;" horiz-adv-x="1673" d="M119 694q0 152 54.5 285.5t149.5 228.5t227.5 150t283.5 55q152 0 285.5 -55t228.5 -150t149.5 -228.5t54.5 -285.5q0 -201 -93 -364.5t-257.5 -256.5t-367.5 -93q-201 0 -365 93t-257 256.5t-93 364.5zM184 694q0 -183 84.5 -332t233.5 -234t332 -85q185 0 335 85 t235 234t85 332q0 139 -50 260.5t-136.5 208.5t-208.5 137t-260 50q-137 0 -257.5 -50t-207 -137t-136 -209t-49.5 -260zM481 696q0 154 103 255.5t258 101.5q168 0 274 -115l-41 -53q-40 46 -100 71t-129 25q-127 0 -207 -80.5t-80 -204.5q0 -125 80 -204.5t207 -79.5 q69 0 129 25t100 69l41 -53q-109 -115 -274 -115q-156 0 -258.5 101.5t-102.5 256.5z" />
<glyph unicode="&#xaa;" horiz-adv-x="878" d="M160 932q0 116 78 174.5t208 58.5q50 0 101 -14v37q0 82 -34 118.5t-107 36.5q-101 0 -177 -47l-14 68q36 19 96.5 32t104.5 13q104 0 151 -53t47 -164v-334q0 -39 12 -55.5t42 -16.5q18 0 57 31l10 -61q-47 -33 -94 -33q-80 0 -92 86q-78 -86 -187 -86q-92 0 -147 59 t-55 150zM182 469v63h525v-63h-525zM223 938q0 -69 41 -109.5t109 -40.5q96 0 174 82v222q-67 16 -105 16q-99 0 -159 -41.5t-60 -128.5z" />
<glyph unicode="&#xab;" horiz-adv-x="911" d="M117 608v25l276 401h10l31 -37l-235 -376l237 -377l-33 -37h-10zM465 608v25l276 401h9l32 -37l-235 -376l237 -377l-34 -37h-9z" />
<glyph unicode="&#xac;" horiz-adv-x="1122" d="M174 702v78h787v-497h-76v419h-711z" />
<glyph unicode="&#xad;" horiz-adv-x="950" d="M158 580v79h635v-79h-635z" />
<glyph unicode="&#xae;" horiz-adv-x="1673" d="M119 694q0 152 54.5 285.5t149.5 228.5t227.5 150t283.5 55q152 0 285.5 -55t228.5 -150t149.5 -228.5t54.5 -285.5q0 -201 -93 -364.5t-257.5 -256.5t-367.5 -93q-201 0 -365 93t-257 256.5t-93 364.5zM184 694q0 -183 84.5 -332t233.5 -234t332 -85q185 0 335 85 t235 234t85 332q0 139 -50 260.5t-136.5 208.5t-208.5 137t-260 50q-137 0 -257.5 -50t-207 -137t-136 -209t-49.5 -260zM575 346v696h308q101 0 169 -56.5t68 -164.5q0 -48 -16 -87t-41 -63t-57 -40t-61.5 -22.5t-57.5 -6.5h-6l272 -244v-12h-92l-281 256h-129v-256h-76z M651 664h230q70 0 116.5 42t46.5 113q0 78 -46.5 119t-116.5 41h-230v-315z" />
<glyph unicode="&#xaf;" horiz-adv-x="1044" d="M315 1319v74h412v-74h-412z" />
<glyph unicode="&#xb0;" horiz-adv-x="841" d="M123 1065q0 161 83 253.5t216 92.5t215 -92.5t82 -253.5t-82 -252.5t-215 -91.5t-216 91.5t-83 252.5zM195 1065q0 -131 61.5 -201.5t165.5 -70.5q105 0 166 70.5t61 201.5t-61.5 203.5t-165.5 72.5q-103 0 -165 -72.5t-62 -203.5z" />
<glyph unicode="&#xb1;" horiz-adv-x="1150" d="M182 186v78h787v-78h-787zM182 805v78h357v420h73v-420h357v-78h-357v-346h-73v346h-357z" />
<glyph unicode="&#xb2;" horiz-adv-x="579" d="M82 1399q3 99 56.5 159t148.5 60q94 0 144 -57t50 -146q0 -65 -28 -118.5t-91 -108.5l-182 -164h320v-57h-408v53l230 205q52 45 75 88t23 96q0 65 -35 107.5t-100 42.5q-70 0 -107 -46.5t-37 -121.5z" />
<glyph unicode="&#xb3;" horiz-adv-x="575" d="M82 1001l16 56q79 -41 168 -41q71 0 116.5 35.5t45.5 97.5q0 57 -35.5 89t-103.5 32h-142v55h142q57 0 89 35.5t32 83.5q0 56 -38.5 86.5t-105.5 30.5q-47 0 -81.5 -9.5t-84.5 -38.5l-14 58q86 47 182 47q94 0 149.5 -45t55.5 -125q0 -109 -98 -145q55 -12 86 -54 t31 -108q0 -84 -61 -134.5t-163 -50.5q-21 0 -42.5 2.5t-37.5 6t-34.5 9.5t-28.5 10l-25 10t-18 7z" />
<glyph unicode="&#xb4;" horiz-adv-x="1044" d="M403 1247l144 271h94l-154 -271h-84z" />
<glyph unicode="&#xb5;" horiz-adv-x="1101" d="M178 -385v1456h90v-653q6 -352 285 -352q121 0 200.5 69.5t116.5 188.5v747h91v-1071h-91v178q-103 -198 -340 -198q-174 0 -262 108v-473h-90z" />
<glyph unicode="&#xb6;" horiz-adv-x="882" d="M70 852q0 103 55 160t143 59h174v-1456h-77v1020h-97q-87 0 -142.5 57.5t-55.5 159.5zM625 -385v1456h75v-1456h-75z" />
<glyph unicode="&#xb7;" horiz-adv-x="473" d="M156 612q0 46 20 70.5t57 24.5q41 0 63.5 -24.5t22.5 -70.5q0 -96 -86 -96q-77 0 -77 96z" />
<glyph unicode="&#xb8;" horiz-adv-x="1044" d="M375 -379l12 49q57 -24 111 -24q53 0 83.5 23t30.5 69q0 78 -100 78q-53 0 -104 -19l-5 8l43 199h52l-31 -147q28 8 59 8q67 0 105.5 -34.5t38.5 -90.5q0 -69 -48 -107.5t-122 -38.5q-64 0 -125 27z" />
<glyph unicode="&#xb9;" horiz-adv-x="442" d="M43 1477l233 129h48v-639h-60v569l-198 -106z" />
<glyph unicode="&#xba;" horiz-adv-x="913" d="M158 1065q0 162 82.5 254t216.5 92q133 0 215 -91.5t82 -254.5q0 -161 -82 -252.5t-215 -91.5t-216 91.5t-83 252.5zM197 469v63h522v-63h-522zM225 1065q0 -132 63.5 -204.5t168.5 -72.5t167 72.5t62 204.5q0 134 -62 207.5t-167 73.5t-168.5 -73.5t-63.5 -207.5z" />
<glyph unicode="&#xbb;" horiz-adv-x="911" d="M129 244l238 377l-238 374l33 39h8l276 -401v-25l-276 -401h-8zM475 995l35 39h8l275 -401v-25l-275 -401h-8l-33 37l236 377z" />
<glyph unicode="&#xbc;" horiz-adv-x="1404" d="M66 1272l233 129h47v-639h-59v569l-199 -106zM283 0v10l641 1383h63v-9l-641 -1384h-63zM811 141v45l315 453h78v-449h119v-49h-119v-141h-61v141h-332zM881 190h262v379z" />
<glyph unicode="&#xbd;" horiz-adv-x="1341" d="M66 1272l233 129h47v-639h-59v569l-199 -106zM283 0v10l641 1383h63v-9l-641 -1384h-63zM831 432q2 99 55.5 159t149.5 60q94 0 144.5 -57t50.5 -148q0 -64 -28 -116.5t-91 -108.5l-182 -164h317v-57h-405v51l229 205q96 86 96 186q0 65 -34 106.5t-99 41.5 q-69 0 -106 -46.5t-39 -121.5z" />
<glyph unicode="&#xbe;" horiz-adv-x="1548" d="M106 797l17 55q79 -41 168 -41q71 0 116.5 35.5t45.5 97.5q0 57 -36 89t-104 32h-141v55h141q57 0 89 35.5t32 83.5q0 56 -38 86.5t-105 30.5q-48 0 -82.5 -9.5t-83.5 -37.5l-14 57q86 47 182 47q94 0 149.5 -44.5t55.5 -125.5q0 -52 -26 -90t-73 -55q55 -12 86 -54 t31 -108q0 -84 -60.5 -134t-162.5 -50q-21 0 -42.5 2.5t-37.5 6t-35 9.5t-28.5 9.5t-25 10t-18.5 7.5zM428 0v10l641 1383h64v-9l-641 -1384h-64zM956 141v45l316 453h78v-449h118v-49h-118v-141h-62v141h-332zM1026 190h262v379z" />
<glyph unicode="&#xbf;" horiz-adv-x="806" d="M88 -14q0 87 29.5 160t91.5 147l149 178q37 45 51.5 76t14.5 69q0 35 -6 58h80q8 -40 8 -72q0 -50 -20 -87.5t-66 -92.5l-146 -178q-52 -64 -74 -121.5t-22 -134.5q0 -102 66.5 -172t177.5 -70q186 0 270 176l41 -63q-104 -195 -325 -195q-144 0 -232 91.5t-88 230.5z M371 1006q0 94 84 94q77 0 77 -94q0 -97 -77 -97q-41 0 -62.5 25.5t-21.5 71.5z" />
<glyph unicode="&#xc0;" horiz-adv-x="1232" d="M57 0l518 1393h99l487 -1393h-90l-123 356h-669l-134 -356h-88zM307 432h615l-299 866zM432 1839h94l144 -270h-84z" />
<glyph unicode="&#xc1;" horiz-adv-x="1232" d="M57 0l518 1393h99l487 -1393h-90l-123 356h-669l-134 -356h-88zM307 432h615l-299 866zM559 1569l143 270h95l-154 -270h-84z" />
<glyph unicode="&#xc2;" horiz-adv-x="1232" d="M57 0l518 1393h99l487 -1393h-90l-123 356h-669l-134 -356h-88zM307 432h615l-299 866zM385 1569l193 270h94l190 -270h-86l-153 211l-152 -211h-86z" />
<glyph unicode="&#xc3;" horiz-adv-x="1232" d="M57 0l518 1393h99l487 -1393h-90l-123 356h-669l-134 -356h-88zM307 432h615l-299 866zM340 1667q25 54 67.5 92.5t94.5 38.5q35 0 70.5 -22.5t60 -50t56 -50t59.5 -22.5q74 0 120 106l39 -45q-62 -133 -159 -133q-29 0 -57 15t-51 36.5t-45 42.5t-46.5 36t-46.5 15 q-74 0 -123 -104z" />
<glyph unicode="&#xc4;" horiz-adv-x="1232" d="M57 0l518 1393h99l487 -1393h-90l-123 356h-669l-134 -356h-88zM307 432h615l-299 866zM344 1698q0 69 64 69q61 0 61 -69q0 -35 -16.5 -52.5t-44.5 -17.5q-29 0 -46.5 17.5t-17.5 52.5zM778 1698q0 69 64 69q59 0 59 -69q0 -35 -16.5 -52.5t-42.5 -17.5q-64 0 -64 70z " />
<glyph unicode="&#xc5;" horiz-adv-x="1232" d="M57 0l504 1354q-62 19 -100.5 71t-38.5 119q0 83 59 142t142 59t141.5 -59t58.5 -142q0 -65 -38 -117.5t-99 -72.5l475 -1354h-90l-123 356h-669l-134 -356h-88zM307 432h615l-299 866zM477 1544q0 -60 43 -102.5t103 -42.5t101.5 42.5t41.5 102.5t-41.5 102t-101.5 42 t-103 -42t-43 -102z" />
<glyph unicode="&#xc6;" horiz-adv-x="1837" d="M27 0l768 1393h929v-84h-804v-541h675v-78h-675v-608h804v-82h-890v356h-512l-197 -356h-98zM365 432h469v848z" />
<glyph unicode="&#xc7;" horiz-adv-x="1263" d="M123 696q0 334 158.5 525.5t423.5 191.5q141 0 256.5 -62t193.5 -165l-55 -62q-70 91 -169 147t-220 56q-231 0 -363.5 -167t-132.5 -464q0 -296 132.5 -463t363.5 -167q121 0 220.5 55.5t168.5 146.5l55 -61q-78 -103 -193.5 -165t-256.5 -62h-27l-25 -123q28 8 60 8 q67 0 105 -34.5t38 -90.5q0 -69 -48 -107.5t-122 -38.5q-64 0 -125 27l12 49q57 -24 111 -24q53 0 84 23t31 69q0 78 -101 78q-53 0 -104 -19l-4 8l39 179q-233 27 -369.5 215t-136.5 497z" />
<glyph unicode="&#xc8;" horiz-adv-x="1204" d="M199 0v1393h891v-84h-803v-539h676v-82h-676v-606h803v-82h-891zM457 1839h94l143 -270h-84z" />
<glyph unicode="&#xc9;" horiz-adv-x="1204" d="M199 0v1393h891v-84h-803v-539h676v-82h-676v-606h803v-82h-891zM588 1569l143 270h94l-153 -270h-84z" />
<glyph unicode="&#xca;" horiz-adv-x="1204" d="M199 0v1393h891v-84h-803v-539h676v-82h-676v-606h803v-82h-891zM408 1569l192 270h94l191 -270h-86l-154 211l-151 -211h-86z" />
<glyph unicode="&#xcb;" horiz-adv-x="1204" d="M199 0v1393h891v-84h-803v-539h676v-82h-676v-606h803v-82h-891zM369 1698q0 69 63 69q62 0 62 -69q0 -35 -17 -52.5t-45 -17.5q-63 0 -63 70zM803 1698q0 69 63 69q60 0 60 -69q0 -35 -17 -52.5t-43 -17.5q-63 0 -63 70z" />
<glyph unicode="&#xcc;" horiz-adv-x="489" d="M63 1839h95l143 -270h-84zM199 0v1393h90v-1393h-90z" />
<glyph unicode="&#xcd;" horiz-adv-x="489" d="M199 0v1393h90v-1393h-90zM201 1569l143 270h94l-153 -270h-84z" />
<glyph unicode="&#xce;" horiz-adv-x="489" d="M4 1569l193 270h94l190 -270h-86l-153 211l-152 -211h-86zM199 0v1393h90v-1393h-90z" />
<glyph unicode="&#xcf;" horiz-adv-x="489" d="M-37 1698q0 69 64 69q61 0 61 -69q0 -35 -16.5 -52.5t-44.5 -17.5q-29 0 -46.5 17.5t-17.5 52.5zM199 0v1393h90v-1393h-90zM397 1698q0 69 64 69q59 0 59 -69q0 -35 -16.5 -52.5t-42.5 -17.5q-64 0 -64 70z" />
<glyph unicode="&#xd0;" horiz-adv-x="1384" d="M96 670v61h113v662h440q132 -1 243.5 -47t194 -132.5t129 -220t46.5 -299.5q0 -165 -46.5 -297.5t-129 -218.5t-194 -132t-243.5 -46h-440v670h-113zM299 82h344q237 0 382.5 161t145.5 451q0 293 -145.5 455t-382.5 162h-344v-580h324v-61h-324v-588z" />
<glyph unicode="&#xd1;" horiz-adv-x="1452" d="M199 0v1393h82l882 -1248v1248h90v-1393h-84l-880 1243v-1243h-90zM457 1667q26 54 67.5 92.5t93.5 38.5q35 0 70.5 -22.5t60 -50t56 -50t59.5 -22.5q75 0 121 106l39 -45q-27 -57 -67.5 -95t-92.5 -38q-29 0 -57 15t-51 36.5t-45 42.5t-46.5 36t-46.5 15 q-73 0 -122 -104z" />
<glyph unicode="&#xd2;" d="M119 694q0 213 79 377.5t217 253t312 88.5q269 0 439.5 -198t170.5 -521q0 -320 -170.5 -517t-439.5 -197q-265 0 -436.5 197.5t-171.5 516.5zM209 694q0 -286 145 -457t373 -171q229 0 375.5 171t146.5 457q0 289 -146 461t-376 172q-228 0 -373 -172t-145 -461z M539 1839h94l143 -270h-84z" />
<glyph unicode="&#xd3;" d="M119 694q0 213 79 377.5t217 253t312 88.5q269 0 439.5 -198t170.5 -521q0 -320 -170.5 -517t-439.5 -197q-265 0 -436.5 197.5t-171.5 516.5zM209 694q0 -286 145 -457t373 -171q229 0 375.5 171t146.5 457q0 289 -146 461t-376 172q-228 0 -373 -172t-145 -461z M682 1569l143 270h95l-154 -270h-84z" />
<glyph unicode="&#xd4;" d="M119 694q0 213 79 377.5t217 253t312 88.5q269 0 439.5 -198t170.5 -521q0 -320 -170.5 -517t-439.5 -197q-265 0 -436.5 197.5t-171.5 516.5zM209 694q0 -286 145 -457t373 -171q229 0 375.5 171t146.5 457q0 289 -146 461t-376 172q-228 0 -373 -172t-145 -461z M487 1569l193 270h94l191 -270h-86l-154 211l-152 -211h-86z" />
<glyph unicode="&#xd5;" d="M119 694q0 213 79 377.5t217 253t312 88.5q269 0 439.5 -198t170.5 -521q0 -320 -170.5 -517t-439.5 -197q-265 0 -436.5 197.5t-171.5 516.5zM209 694q0 -286 145 -457t373 -171q229 0 375.5 171t146.5 457q0 289 -146 461t-376 172q-228 0 -373 -172t-145 -461z M444 1667q25 54 67.5 92.5t94.5 38.5q35 0 70.5 -22.5t60 -50t56 -50t59.5 -22.5q75 0 121 106l39 -45q-27 -57 -67.5 -95t-92.5 -38q-29 0 -57 15t-51 36.5t-45 42.5t-46.5 36t-46.5 15q-74 0 -123 -104z" />
<glyph unicode="&#xd6;" d="M119 694q0 213 79 377.5t217 253t312 88.5q269 0 439.5 -198t170.5 -521q0 -320 -170.5 -517t-439.5 -197q-265 0 -436.5 197.5t-171.5 516.5zM209 694q0 -286 145 -457t373 -171q229 0 375.5 171t146.5 457q0 289 -146 461t-376 172q-228 0 -373 -172t-145 -461z M451 1698q0 69 63 69q61 0 61 -69q0 -35 -16.5 -52.5t-44.5 -17.5q-63 0 -63 70zM885 1698q0 69 63 69q60 0 60 -69q0 -35 -17 -52.5t-43 -17.5q-63 0 -63 70z" />
<glyph unicode="&#xd7;" horiz-adv-x="915" d="M154 322l252 296l-252 297l53 56l252 -297l250 297l53 -56l-250 -297l250 -296l-53 -56l-250 297l-252 -297z" />
<glyph unicode="&#xd8;" d="M119 694q0 213 79 377.5t217 253t312 88.5q212 0 369 -129l75 109h74v-9l-100 -145q92 -97 142 -236.5t50 -308.5q0 -320 -170.5 -517t-439.5 -197q-211 0 -360 122l-72 -102h-76v10l96 140q-196 202 -196 544zM209 694q0 -297 156 -471l682 987q-135 117 -320 117 q-228 0 -373 -172t-145 -461zM416 174q126 -108 311 -108q229 0 375.5 171t146.5 457q0 293 -155 469z" />
<glyph unicode="&#xd9;" horiz-adv-x="1368" d="M184 551v842h90v-838q0 -230 101 -362t307 -132q105 0 185 38.5t129 107t73.5 157t24.5 193.5v836h90v-842q0 -119 -31 -221.5t-91 -182.5t-158 -126t-222 -46q-245 0 -371.5 156t-126.5 420zM494 1839h94l143 -270h-84z" />
<glyph unicode="&#xda;" horiz-adv-x="1368" d="M184 551v842h90v-838q0 -230 101 -362t307 -132q105 0 185 38.5t129 107t73.5 157t24.5 193.5v836h90v-842q0 -119 -31 -221.5t-91 -182.5t-158 -126t-222 -46q-245 0 -371.5 156t-126.5 420zM637 1569l143 270h94l-153 -270h-84z" />
<glyph unicode="&#xdb;" horiz-adv-x="1368" d="M184 551v842h90v-838q0 -230 101 -362t307 -132q105 0 185 38.5t129 107t73.5 157t24.5 193.5v836h90v-842q0 -119 -31 -221.5t-91 -182.5t-158 -126t-222 -46q-245 0 -371.5 156t-126.5 420zM444 1569l193 270h94l191 -270h-86l-154 211l-152 -211h-86z" />
<glyph unicode="&#xdc;" horiz-adv-x="1368" d="M184 551v842h90v-838q0 -230 101 -362t307 -132q105 0 185 38.5t129 107t73.5 157t24.5 193.5v836h90v-842q0 -119 -31 -221.5t-91 -182.5t-158 -126t-222 -46q-245 0 -371.5 156t-126.5 420zM408 1698q0 69 63 69q61 0 61 -69q0 -35 -16.5 -52.5t-44.5 -17.5 q-63 0 -63 70zM842 1698q0 69 63 69q60 0 60 -69q0 -35 -17 -52.5t-43 -17.5q-63 0 -63 70z" />
<glyph unicode="&#xdd;" horiz-adv-x="1210" d="M59 1384v9h101l446 -709l447 709h100v-9l-504 -782v-602h-88v600zM559 1569l143 270h95l-154 -270h-84z" />
<glyph unicode="&#xde;" horiz-adv-x="1189" d="M199 0v1393h90v-236h397q86 0 158 -23.5t131.5 -74t93 -139t33.5 -207.5q0 -109 -34 -194.5t-92.5 -138t-132 -79.5t-157.5 -27h-397v-274h-90zM289 356h385q147 0 242.5 90.5t95.5 266.5q0 99 -26.5 171t-74.5 112.5t-106.5 59.5t-130.5 19h-385v-719z" />
<glyph unicode="&#xdf;" horiz-adv-x="1161" d="M180 0v950q0 247 112 386t296 139q157 0 261.5 -110t104.5 -267q0 -69 -28 -135t-61 -105.5t-61 -75.5t-28 -53q0 -12 28.5 -36.5t69 -59t81.5 -78t69.5 -108t28.5 -134.5q0 -154 -94.5 -243.5t-243.5 -89.5q-84 0 -153 20.5t-111 48.5l20 80q101 -68 221 -68 q113 0 189.5 71t76.5 190q0 53 -20.5 101.5t-50.5 83t-66 67.5t-66 56.5t-50.5 48t-20.5 44.5q0 23 18.5 52.5t45 60.5t53 67.5t45 85.5t18.5 101q0 134 -82 218.5t-200 84.5q-146 0 -230 -120t-84 -323v-950h-88z" />
<glyph unicode="&#xe0;" horiz-adv-x="1052" d="M98 307q0 98 38 171.5t105.5 118t154.5 66t192 21.5q102 0 205 -29v62q0 145 -72 218t-207 73q-169 0 -301 -72l-18 78q64 34 157 55t172 21q171 0 264 -96.5t93 -278.5v-715h-88v123q-143 -143 -342 -143q-160 0 -256.5 88.5t-96.5 238.5zM190 313q0 -119 77 -187.5 t204 -68.5q187 0 322 150v379q-76 26 -201 26q-86 0 -157 -17t-127 -51.5t-87 -93.5t-31 -137zM362 1518h95l143 -271h-84z" />
<glyph unicode="&#xe1;" horiz-adv-x="1052" d="M98 307q0 98 38 171.5t105.5 118t154.5 66t192 21.5q102 0 205 -29v62q0 145 -72 218t-207 73q-169 0 -301 -72l-18 78q64 34 157 55t172 21q171 0 264 -96.5t93 -278.5v-715h-88v123q-143 -143 -342 -143q-160 0 -256.5 88.5t-96.5 238.5zM190 313q0 -119 77 -187.5 t204 -68.5q187 0 322 150v379q-76 26 -201 26q-86 0 -157 -17t-127 -51.5t-87 -93.5t-31 -137zM487 1247l144 271h94l-154 -271h-84z" />
<glyph unicode="&#xe2;" horiz-adv-x="1052" d="M98 307q0 98 38 171.5t105.5 118t154.5 66t192 21.5q102 0 205 -29v62q0 145 -72 218t-207 73q-169 0 -301 -72l-18 78q64 34 157 55t172 21q171 0 264 -96.5t93 -278.5v-715h-88v123q-143 -143 -342 -143q-160 0 -256.5 88.5t-96.5 238.5zM190 313q0 -119 77 -187.5 t204 -68.5q187 0 322 150v379q-76 26 -201 26q-86 0 -157 -17t-127 -51.5t-87 -93.5t-31 -137zM315 1247l193 271h94l191 -271h-86l-154 211l-152 -211h-86z" />
<glyph unicode="&#xe3;" horiz-adv-x="1052" d="M98 307q0 98 38 171.5t105.5 118t154.5 66t192 21.5q102 0 205 -29v62q0 145 -72 218t-207 73q-169 0 -301 -72l-18 78q64 34 157 55t172 21q171 0 264 -96.5t93 -278.5v-715h-88v123q-143 -143 -342 -143q-160 0 -256.5 88.5t-96.5 238.5zM190 313q0 -119 77 -187.5 t204 -68.5q187 0 322 150v379q-76 26 -201 26q-86 0 -157 -17t-127 -51.5t-87 -93.5t-31 -137zM264 1346q25 54 67.5 92.5t94.5 38.5q35 0 70.5 -23t60 -50t56 -50t59.5 -23q74 0 121 107l38 -45q-62 -133 -159 -133q-29 0 -57 15t-51 36t-45 42.5t-46.5 36.5t-46.5 15 q-73 0 -123 -105z" />
<glyph unicode="&#xe4;" horiz-adv-x="1052" d="M98 307q0 98 38 171.5t105.5 118t154.5 66t192 21.5q102 0 205 -29v62q0 145 -72 218t-207 73q-169 0 -301 -72l-18 78q64 34 157 55t172 21q171 0 264 -96.5t93 -278.5v-715h-88v123q-143 -143 -342 -143q-160 0 -256.5 88.5t-96.5 238.5zM190 313q0 -119 77 -187.5 t204 -68.5q187 0 322 150v379q-76 26 -201 26q-86 0 -157 -17t-127 -51.5t-87 -93.5t-31 -137zM264 1376q0 70 64 70q61 0 61 -70q0 -69 -61 -69q-64 0 -64 69zM698 1376q0 70 64 70q59 0 59 -70q0 -35 -16.5 -52t-42.5 -17q-64 0 -64 69z" />
<glyph unicode="&#xe5;" horiz-adv-x="1052" d="M98 307q0 98 38 171.5t105.5 118t154.5 66t192 21.5q102 0 205 -29v62q0 145 -72 218t-207 73q-169 0 -301 -72l-18 78q64 34 157 55t172 21q171 0 264 -96.5t93 -278.5v-715h-88v123q-143 -143 -342 -143q-160 0 -256.5 88.5t-96.5 238.5zM190 313q0 -119 77 -187.5 t204 -68.5q187 0 322 150v379q-76 26 -201 26q-86 0 -157 -17t-127 -51.5t-87 -93.5t-31 -137zM336 1372q0 83 59 142t142 59t141.5 -59t58.5 -142t-58.5 -142t-141.5 -59t-142 59t-59 142zM391 1372q0 -60 43 -102.5t103 -42.5t101.5 42.5t41.5 102.5t-41.5 102t-101.5 42 t-103 -42t-43 -102z" />
<glyph unicode="&#xe6;" horiz-adv-x="1716" d="M98 309q0 125 64.5 210.5t173 124.5t254.5 40q89 0 203 -29q0 84 -11.5 143.5t-41.5 109.5t-87.5 75t-144.5 25q-149 0 -297 -72l-18 78q68 36 160 56t173 20q157 0 234 -73.5t98 -203.5q19 51 47.5 97t72 91t107 72t138.5 27q80 0 143.5 -23.5t106 -64t70.5 -97 t40 -120.5t12 -138q0 -81 -16 -155h-702q2 -212 85.5 -333.5t251.5 -121.5q98 0 174 36t146 101l41 -63q-164 -150 -365 -150q-139 0 -230.5 71.5t-129.5 174.5q-28 -44 -64 -83.5t-84.5 -75.5t-112 -57t-132.5 -21q-162 0 -260.5 88t-98.5 241zM188 313q0 -119 79 -187.5 t204 -68.5q109 0 196.5 62t125.5 143v320q-102 30 -193 30q-90 -1 -162.5 -18t-129.5 -51.5t-88.5 -93t-31.5 -136.5zM883 573h626q9 65 9 93q0 74 -15.5 136.5t-49 114t-91.5 80.5t-137 29q-67 0 -124 -27t-96.5 -72t-67.5 -104t-41 -122.5t-13 -127.5z" />
<glyph unicode="&#xe7;" horiz-adv-x="1042" d="M121 537q0 257 129 410t342 153q202 0 342 -160l-47 -68q-121 144 -295 144t-277.5 -129.5t-103.5 -349.5q0 -221 104 -351.5t279 -130.5q172 0 293 144l47 -68q-140 -160 -342 -160q-6 0 -18.5 1t-18.5 1l-25 -116q28 8 60 8q67 0 105 -34.5t38 -90.5q0 -69 -48 -107.5 t-122 -38.5q-63 0 -125 27l13 49q57 -24 110 -24t84 23t31 69q0 78 -101 78q-53 0 -104 -19l-4 8l37 175q-176 29 -279.5 178.5t-103.5 378.5z" />
<glyph unicode="&#xe8;" horiz-adv-x="1112" d="M119 532q0 250 128.5 409t344.5 159q101 0 179.5 -35t125.5 -97t70.5 -140.5t23.5 -170.5q0 -88 -16 -157h-768q2 -101 26.5 -181.5t72.5 -141t125.5 -93.5t180.5 -33q178 0 324 135l41 -73q-155 -142 -373 -142q-125 0 -219.5 41.5t-152 118t-85.5 177t-28 224.5z M209 575h692q8 54 8 91q0 73 -19 135.5t-57 111.5t-99.5 77t-141.5 28q-172 0 -274.5 -123t-108.5 -320zM432 1518h94l144 -271h-84z" />
<glyph unicode="&#xe9;" horiz-adv-x="1112" d="M119 532q0 250 128.5 409t344.5 159q101 0 179.5 -35t125.5 -97t70.5 -140.5t23.5 -170.5q0 -88 -16 -157h-768q2 -101 26.5 -181.5t72.5 -141t125.5 -93.5t180.5 -33q178 0 324 135l41 -73q-155 -142 -373 -142q-125 0 -219.5 41.5t-152 118t-85.5 177t-28 224.5z M209 575h692q8 54 8 91q0 73 -19 135.5t-57 111.5t-99.5 77t-141.5 28q-172 0 -274.5 -123t-108.5 -320zM539 1247l143 271h94l-153 -271h-84z" />
<glyph unicode="&#xea;" horiz-adv-x="1112" d="M119 532q0 250 128.5 409t344.5 159q101 0 179.5 -35t125.5 -97t70.5 -140.5t23.5 -170.5q0 -88 -16 -157h-768q2 -101 26.5 -181.5t72.5 -141t125.5 -93.5t180.5 -33q178 0 324 135l41 -73q-155 -142 -373 -142q-125 0 -219.5 41.5t-152 118t-85.5 177t-28 224.5z M209 575h692q8 54 8 91q0 73 -19 135.5t-57 111.5t-99.5 77t-141.5 28q-172 0 -274.5 -123t-108.5 -320zM365 1247l192 271h94l191 -271h-86l-154 211l-151 -211h-86z" />
<glyph unicode="&#xeb;" horiz-adv-x="1112" d="M119 532q0 250 128.5 409t344.5 159q101 0 179.5 -35t125.5 -97t70.5 -140.5t23.5 -170.5q0 -88 -16 -157h-768q2 -101 26.5 -181.5t72.5 -141t125.5 -93.5t180.5 -33q178 0 324 135l41 -73q-155 -142 -373 -142q-125 0 -219.5 41.5t-152 118t-85.5 177t-28 224.5z M209 575h692q8 54 8 91q0 73 -19 135.5t-57 111.5t-99.5 77t-141.5 28q-172 0 -274.5 -123t-108.5 -320zM324 1376q0 70 63 70q62 0 62 -70q0 -35 -17 -52t-45 -17q-63 0 -63 69zM758 1376q0 70 63 70q60 0 60 -70q0 -35 -16.5 -52t-43.5 -17q-63 0 -63 69z" />
<glyph unicode="&#xec;" horiz-adv-x="448" d="M45 1518h94l144 -271h-84zM180 0v1071h88v-1071h-88z" />
<glyph unicode="&#xed;" horiz-adv-x="448" d="M180 0v1071h88v-1071h-88zM180 1247l144 271h94l-154 -271h-84z" />
<glyph unicode="&#xee;" horiz-adv-x="448" d="M-14 1247l192 271h94l191 -271h-86l-154 211l-151 -211h-86zM180 0v1071h88v-1071h-88z" />
<glyph unicode="&#xef;" horiz-adv-x="448" d="M-53 1376q0 70 63 70q62 0 62 -70q0 -35 -17 -52t-45 -17q-63 0 -63 69zM180 0v1071h88v-1071h-88zM381 1376q0 70 63 70q60 0 60 -70q0 -35 -16.5 -52t-43.5 -17q-63 0 -63 69z" />
<glyph unicode="&#xf0;" horiz-adv-x="1122" d="M127 465q0 217 101.5 341t277.5 124q61 0 117.5 -21.5t97 -52t77.5 -73.5t58.5 -77t40.5 -71q2 20 2 63q0 325 -192 545l-125 -147l-33 34l123 150q-85 85 -197 131l39 64q109 -38 211 -132l117 140l35 -37l-117 -137q103 -111 165 -267.5t62 -343.5q0 -331 -123 -524.5 t-342 -193.5q-171 0 -283 135.5t-112 349.5zM217 465q0 -173 87 -286t220 -113q150 0 245 126.5t120 346.5q-15 33 -33.5 66.5t-53 80t-73 81t-93.5 59t-114 24.5q-136 0 -220.5 -100.5t-84.5 -284.5z" />
<glyph unicode="&#xf1;" horiz-adv-x="1171" d="M180 0v1071h88v-201q52 105 145.5 162.5t219.5 57.5q181 0 273.5 -108.5t92.5 -313.5v-668h-88v657q0 168 -75.5 257.5t-225.5 89.5q-130 0 -219 -77.5t-123 -201.5v-725h-88zM324 1346q26 54 67.5 92.5t93.5 38.5q35 0 70.5 -23t60 -50t56 -50t59.5 -23q74 0 121 107 l39 -45q-27 -57 -67.5 -95t-92.5 -38q-29 0 -57 15t-51 36t-45 42.5t-46.5 36.5t-46.5 15q-73 0 -123 -105z" />
<glyph unicode="&#xf2;" horiz-adv-x="1202" d="M119 532q0 259 132.5 413.5t346.5 154.5q218 0 351.5 -154.5t133.5 -413.5q0 -256 -133.5 -408.5t-351.5 -152.5q-214 0 -346.5 152.5t-132.5 408.5zM207 532q0 -219 108 -348t283 -129q180 0 288.5 128.5t108.5 348.5q0 222 -108.5 352t-288.5 130q-175 0 -283 -130 t-108 -352zM410 1518h94l143 -271h-84z" />
<glyph unicode="&#xf3;" horiz-adv-x="1202" d="M119 532q0 259 132.5 413.5t346.5 154.5q218 0 351.5 -154.5t133.5 -413.5q0 -256 -133.5 -408.5t-351.5 -152.5q-214 0 -346.5 152.5t-132.5 408.5zM207 532q0 -219 108 -348t283 -129q180 0 288.5 128.5t108.5 348.5q0 222 -108.5 352t-288.5 130q-175 0 -283 -130 t-108 -352zM555 1247l143 271h95l-154 -271h-84z" />
<glyph unicode="&#xf4;" horiz-adv-x="1202" d="M119 532q0 259 132.5 413.5t346.5 154.5q218 0 351.5 -154.5t133.5 -413.5q0 -256 -133.5 -408.5t-351.5 -152.5q-214 0 -346.5 152.5t-132.5 408.5zM207 532q0 -219 108 -348t283 -129q180 0 288.5 128.5t108.5 348.5q0 222 -108.5 352t-288.5 130q-175 0 -283 -130 t-108 -352zM362 1247l193 271h94l191 -271h-86l-154 211l-151 -211h-87z" />
<glyph unicode="&#xf5;" horiz-adv-x="1202" d="M119 532q0 259 132.5 413.5t346.5 154.5q218 0 351.5 -154.5t133.5 -413.5q0 -256 -133.5 -408.5t-351.5 -152.5q-214 0 -346.5 152.5t-132.5 408.5zM207 532q0 -219 108 -348t283 -129q180 0 288.5 128.5t108.5 348.5q0 222 -108.5 352t-288.5 130q-175 0 -283 -130 t-108 -352zM315 1346q25 54 67.5 92.5t94.5 38.5q35 0 70.5 -23t60 -50t56 -50t59.5 -23q74 0 121 107l39 -45q-27 -57 -67.5 -95t-92.5 -38q-29 0 -57 15t-51 36t-45 42.5t-46.5 36.5t-46.5 15q-73 0 -123 -105z" />
<glyph unicode="&#xf6;" horiz-adv-x="1202" d="M119 532q0 259 132.5 413.5t346.5 154.5q218 0 351.5 -154.5t133.5 -413.5q0 -256 -133.5 -408.5t-351.5 -152.5q-214 0 -346.5 152.5t-132.5 408.5zM207 532q0 -219 108 -348t283 -129q180 0 288.5 128.5t108.5 348.5q0 222 -108.5 352t-288.5 130q-175 0 -283 -130 t-108 -352zM322 1376q0 70 63 70q61 0 61 -70q0 -69 -61 -69q-63 0 -63 69zM756 1376q0 70 63 70q60 0 60 -70q0 -35 -16.5 -52t-43.5 -17q-63 0 -63 69z" />
<glyph unicode="&#xf7;" horiz-adv-x="1093" d="M152 580v77h786v-77h-786zM451 272q0 95 79 95q38 0 59 -25t21 -70q0 -96 -80 -96q-79 0 -79 96zM451 967q0 94 79 94q38 0 59 -24t21 -70q0 -95 -80 -95q-79 0 -79 95z" />
<glyph unicode="&#xf8;" horiz-adv-x="1202" d="M119 532q0 259 132.5 413.5t346.5 154.5q183 0 309 -111l56 80h61v-8l-78 -113q137 -156 137 -416q0 -256 -133.5 -408.5t-351.5 -152.5q-152 0 -270 82l-37 -53h-62v10l56 80q-79 73 -122.5 186t-43.5 256zM207 532q0 -240 127 -370l522 753q-107 99 -258 99 q-175 0 -283 -130t-108 -352zM377 125q95 -70 221 -70q180 0 288.5 128.5t108.5 348.5q0 210 -100 340z" />
<glyph unicode="&#xf9;" horiz-adv-x="1169" d="M170 403v668h88v-657q0 -168 75.5 -257t225.5 -89q130 0 219 77t123 201v725h88v-1071h-88v201q-52 -105 -145 -162t-219 -57q-181 0 -274 108.5t-93 312.5zM393 1518h94l144 -271h-84z" />
<glyph unicode="&#xfa;" horiz-adv-x="1169" d="M170 403v668h88v-657q0 -168 75.5 -257t225.5 -89q130 0 219 77t123 201v725h88v-1071h-88v201q-52 -105 -145 -162t-219 -57q-181 0 -274 108.5t-93 312.5zM532 1247l144 271h94l-154 -271h-84z" />
<glyph unicode="&#xfb;" horiz-adv-x="1169" d="M170 403v668h88v-657q0 -168 75.5 -257t225.5 -89q130 0 219 77t123 201v725h88v-1071h-88v201q-52 -105 -145 -162t-219 -57q-181 0 -274 108.5t-93 312.5zM344 1247l193 271h94l190 -271h-86l-153 211l-152 -211h-86z" />
<glyph unicode="&#xfc;" horiz-adv-x="1169" d="M170 403v668h88v-657q0 -168 75.5 -257t225.5 -89q130 0 219 77t123 201v725h88v-1071h-88v201q-52 -105 -145 -162t-219 -57q-181 0 -274 108.5t-93 312.5zM301 1376q0 70 64 70q61 0 61 -70q0 -69 -61 -69q-64 0 -64 69zM735 1376q0 70 64 70q59 0 59 -70 q0 -35 -16.5 -52t-42.5 -17q-64 0 -64 69z" />
<glyph unicode="&#xfd;" horiz-adv-x="1073" d="M37 -342l20 72q81 -56 183 -56q88 0 139 56.5t94 179.5l31 94l-445 1067h99l389 -971l348 971h92l-432 -1182q-57 -151 -124.5 -223t-186.5 -72q-120 0 -207 64zM489 1247l144 271h94l-154 -271h-84z" />
<glyph unicode="&#xfe;" horiz-adv-x="1155" d="M180 -385v1839h88v-510q57 67 139 108.5t179 41.5q204 0 327 -150t123 -407t-122.5 -405t-327.5 -148q-95 0 -178.5 40.5t-139.5 104.5v-514h-88zM268 217q46 -63 127.5 -107t171.5 -44q174 0 276.5 127.5t102.5 349.5q0 217 -102.5 342t-276.5 125q-90 0 -171.5 -43.5 t-127.5 -106.5v-643z" />
<glyph unicode="&#xff;" horiz-adv-x="1073" d="M37 -342l20 72q81 -56 183 -56q88 0 139 56.5t94 179.5l31 94l-445 1067h99l389 -971l348 971h92l-432 -1182q-57 -151 -124.5 -223t-186.5 -72q-120 0 -207 64zM262 1376q0 70 64 70q61 0 61 -70q0 -69 -61 -69q-64 0 -64 69zM696 1376q0 70 64 70q59 0 59 -70 q0 -35 -16.5 -52t-42.5 -17q-64 0 -64 69z" />
<glyph unicode="&#x152;" horiz-adv-x="2109" d="M119 694q0 203 79 368t217.5 258t309.5 93q227 0 381 -145v125h891v-84h-803v-541h674v-78h-674v-608h801v-82h-889v121q-153 -141 -381 -141q-171 0 -309.5 93t-217.5 256.5t-79 364.5zM205 694q0 -178 67.5 -321.5t187.5 -225t269 -81.5q239 0 377 163v930 q-140 168 -379 168q-149 0 -268 -81.5t-186.5 -226.5t-67.5 -325z" />
<glyph unicode="&#x153;" horiz-adv-x="2011" d="M119 532q0 259 132.5 413.5t346.5 154.5q168 0 288.5 -97t164.5 -266q42 165 158 264t282 99q100 0 178 -35t125.5 -97t71.5 -141.5t24 -173.5q0 -77 -16 -151h-772q2 -214 106 -333.5t299 -119.5q96 0 174.5 33.5t155.5 101.5l37 -69q-157 -144 -369 -144 q-190 0 -304 94t-152 259q-46 -166 -165.5 -259.5t-285.5 -93.5q-214 0 -346.5 152.5t-132.5 408.5zM205 532q0 -219 109 -348t284 -129q180 0 289.5 129t109.5 348q0 222 -109.5 352t-289.5 130q-176 0 -284.5 -130.5t-108.5 -351.5zM1104 573h700q8 58 8 91 q0 95 -34.5 175t-109 132.5t-177.5 52.5q-174 0 -278 -125t-109 -326z" />
<glyph unicode="&#x178;" horiz-adv-x="1210" d="M59 1384v9h101l446 -709l447 709h100v-9l-504 -782v-602h-88v600zM330 1698q0 69 63 69q62 0 62 -69q0 -35 -17 -52.5t-45 -17.5q-63 0 -63 70zM764 1698q0 69 63 69q60 0 60 -69q0 -35 -17 -52.5t-43 -17.5q-63 0 -63 70z" />
<glyph unicode="&#x2c6;" horiz-adv-x="1044" d="M283 1247l192 271h94l191 -271h-86l-154 211l-151 -211h-86z" />
<glyph unicode="&#x2dc;" horiz-adv-x="1044" d="M238 1346q26 54 67.5 92.5t93.5 38.5q35 0 70.5 -23t60 -50t56 -50t59.5 -23q74 0 121 107l39 -45q-27 -57 -67.5 -95t-92.5 -38q-29 0 -57 15t-51 36t-45 42.5t-46.5 36.5t-46.5 15q-73 0 -123 -105z" />
<glyph unicode="&#x2000;" horiz-adv-x="919" />
<glyph unicode="&#x2001;" horiz-adv-x="1839" />
<glyph unicode="&#x2002;" horiz-adv-x="919" />
<glyph unicode="&#x2003;" horiz-adv-x="1839" />
<glyph unicode="&#x2004;" horiz-adv-x="613" />
<glyph unicode="&#x2005;" horiz-adv-x="459" />
<glyph unicode="&#x2006;" horiz-adv-x="306" />
<glyph unicode="&#x2007;" horiz-adv-x="306" />
<glyph unicode="&#x2008;" horiz-adv-x="229" />
<glyph unicode="&#x2009;" horiz-adv-x="367" />
<glyph unicode="&#x200a;" horiz-adv-x="102" />
<glyph unicode="&#x2010;" horiz-adv-x="950" d="M158 580v79h635v-79h-635z" />
<glyph unicode="&#x2011;" horiz-adv-x="950" d="M158 580v79h635v-79h-635z" />
<glyph unicode="&#x2012;" horiz-adv-x="950" d="M158 580v79h635v-79h-635z" />
<glyph unicode="&#x2013;" horiz-adv-x="1107" d="M158 580v79h794v-79h-794z" />
<glyph unicode="&#x2014;" horiz-adv-x="1507" d="M158 580v79h1192v-79h-1192z" />
<glyph unicode="&#x2018;" horiz-adv-x="444" d="M133 1006q0 75 40.5 214t70.5 193l55 -24l-82 -295q41 -3 63.5 -28t22.5 -60q0 -101 -84 -101q-41 0 -63.5 29t-22.5 72z" />
<glyph unicode="&#x2019;" horiz-adv-x="440" d="M147 926l84 295q-40 3 -62 28t-22 60q0 49 22 74.5t62 25.5t63 -28.5t23 -71.5q0 -75 -41.5 -214t-72.5 -194z" />
<glyph unicode="&#x201a;" horiz-adv-x="471" d="M152 61q0 49 22 75t62 26t63 -29t23 -72q0 -75 -42 -213t-73 -194l-55 24l84 295q-40 3 -62 28t-22 60z" />
<glyph unicode="&#x201c;" horiz-adv-x="739" d="M133 1014q0 73 39 209.5t68 189.5l51 -22l-80 -293q40 -1 61 -24.5t21 -59.5q0 -46 -21 -71t-59 -25t-59 27.5t-21 68.5zM436 1014q0 72 39.5 207.5t67.5 191.5l51 -22l-80 -293q40 -1 62 -25t22 -59q0 -96 -80 -96q-38 0 -60 28t-22 68z" />
<glyph unicode="&#x201d;" horiz-adv-x="733" d="M145 1315q0 46 21 70t59 24t59 -27t21 -67q0 -73 -38.5 -210.5t-65.5 -189.5l-51 23l77 291q-39 3 -60.5 27t-21.5 59zM451 1315q0 46 20 70t57 24t59.5 -27t22.5 -67q0 -72 -39 -209.5t-67 -190.5l-51 23l79 291q-41 3 -61 26.5t-20 59.5z" />
<glyph unicode="&#x201e;" horiz-adv-x="765" d="M152 53q0 97 79 97q38 0 59 -28t21 -69q0 -72 -38 -208.5t-66 -190.5l-51 22l77 293q-38 1 -59.5 25t-21.5 59zM457 53q0 97 78 97q37 0 59 -28.5t22 -68.5q0 -73 -38.5 -209.5t-67.5 -189.5l-53 22l82 293q-41 1 -61.5 24.5t-20.5 59.5z" />
<glyph unicode="&#x2022;" horiz-adv-x="657" d="M199 618q0 75 33.5 115.5t95.5 40.5t96.5 -40.5t34.5 -115.5q0 -77 -34.5 -117t-96.5 -40t-95.5 40t-33.5 117z" />
<glyph unicode="&#x2026;" horiz-adv-x="1220" d="M154 66q0 46 20.5 71t58.5 25q39 0 61.5 -25.5t22.5 -70.5q0 -47 -22.5 -72t-61.5 -25q-79 0 -79 97zM528 66q0 46 21 71t59 25q40 0 62 -25t22 -71q0 -47 -22 -72t-62 -25q-38 0 -59 25t-21 72zM905 66q0 46 21 71t59 25t60 -25t22 -71q0 -47 -21.5 -72t-60.5 -25 q-38 0 -59 25t-21 72z" />
<glyph unicode="&#x202f;" horiz-adv-x="367" />
<glyph unicode="&#x2039;" horiz-adv-x="565" d="M117 608v25l276 401h10l31 -37l-235 -376l237 -377l-33 -37h-10z" />
<glyph unicode="&#x203a;" horiz-adv-x="565" d="M129 244l238 377l-238 374l33 39h8l276 -401v-25l-276 -401h-8z" />
<glyph unicode="&#x205f;" horiz-adv-x="459" />
<glyph unicode="&#x20ac;" horiz-adv-x="1122" d="M111 537v67h90q-2 29 -2 92v76h-88v68h94q26 278 145 425.5t307 147.5q211 0 340 -129l-34 -78q-116 121 -299 121q-152 0 -249 -123.5t-120 -363.5h526l-26 -68h-506v-76q0 -63 2 -92h440l-24 -67h-410q26 -229 122.5 -350t244.5 -121q174 0 299 106l36 -74 q-145 -118 -344 -118q-183 0 -302 143.5t-146 413.5h-96z" />
<glyph unicode="&#x2122;" horiz-adv-x="1490" d="M141 1294v64h455v-64h-193v-563h-59v563h-203zM739 731v627h58l231 -338l232 338h55v-627h-60v522l-219 -321h-16l-221 321v-522h-60z" />
<glyph unicode="&#x25fc;" horiz-adv-x="1075" d="M0 0v1075h1075v-1075h-1075z" />
<glyph unicode="&#xfb01;" horiz-adv-x="1224" d="M88 924v75h197v152q0 154 70.5 239t207.5 85q70 0 130.5 -30.5t99.5 -72.5l-33 -74q-88 97 -187 97q-200 0 -200 -242v-154h360v-75h-360v-924h-88v924h-197zM938 1378q0 70 66 70q63 0 63 -70q0 -71 -63 -71q-66 0 -66 71zM958 0v1071h89v-1071h-89z" />
<glyph unicode="&#xfb02;" horiz-adv-x="1318" d="M88 924v75h197v152q0 154 70.5 239t207.5 85q70 0 130.5 -30.5t99.5 -72.5l-33 -74q-88 97 -187 97q-200 0 -200 -242v-154h360v-75h-360v-924h-88v924h-197zM954 195v1259h88v-1245q0 -84 26.5 -116t80.5 -32q60 0 131 48l14 -74q-75 -55 -168 -55q-85 0 -128.5 50 t-43.5 165z" />
</font>
</defs>
</svg>
