<?xml version="1.0" standalone="no"?>
<!DOCTYPE svg PUBLIC "-//W3C//DTD SVG 1.1//EN" "http://www.w3.org/Graphics/SVG/1.1/DTD/svg11.dtd" >
<svg xmlns="http://www.w3.org/2000/svg">
<metadata></metadata>
<defs>
<font id="pluto_sanscond_thin" horiz-adv-x="1218" >
<font-face units-per-em="2048" ascent="1536" descent="-512" />
<missing-glyph horiz-adv-x="419" />
<glyph horiz-adv-x="0" />
<glyph horiz-adv-x="0" />
<glyph horiz-adv-x="682" />
<glyph unicode=" "  horiz-adv-x="419" />
<glyph unicode="&#x09;" horiz-adv-x="419" />
<glyph unicode="&#xa0;" horiz-adv-x="419" />
<glyph unicode="!" horiz-adv-x="468" d="M174 55q0 76 59 76q29 0 45.5 -19.5t16.5 -56.5q0 -75 -62 -75q-59 0 -59 75zM213 391v1000h41v-1000h-41z" />
<glyph unicode="&#x22;" horiz-adv-x="720" d="M170 920v473h39v-473h-39zM512 920v473h39v-473h-39z" />
<glyph unicode="#" horiz-adv-x="1220" d="M86 340v43h188l136 645h-166v43h176l67 322h41v-7l-67 -315h446l68 322h41v-7l-68 -315h187v-43h-195l-137 -645h174v-43h-182l-72 -340h-41v6l70 334h-445l-71 -340h-41v6l69 334h-178zM315 383h447l135 645h-444z" />
<glyph unicode="$" horiz-adv-x="1087" d="M111 1042q0 69 25.5 131.5t74.5 114t130.5 84.5t184.5 37v168h41v-166q105 -1 210.5 -34.5t176.5 -78.5l-18 -41q-59 43 -166 77.5t-203 35.5v-647l86 -23q160 -43 241 -117.5t81 -211.5q0 -169 -112 -273t-296 -116v-244h-41v242h-6q-112 0 -218.5 37.5t-170.5 84.5 l12 39q68 -45 170 -83t207 -38h6v674l-153 41q-123 32 -192.5 109t-69.5 198zM152 1042q0 -204 229 -266l145 -41v633q-93 -4 -166 -33.5t-117.5 -75.5t-67.5 -101.5t-23 -115.5zM567 23q163 12 265 105.5t102 242.5q0 114 -72 184t-221 109l-74 18v-659z" />
<glyph unicode="%" horiz-adv-x="1441" d="M88 1071q0 159 79.5 249.5t209.5 90.5q131 0 211 -90.5t80 -249.5q0 -157 -80 -246.5t-211 -89.5q-130 0 -209.5 89.5t-79.5 246.5zM129 1071q0 -140 68 -218.5t180 -78.5q114 0 182 78.5t68 218.5q0 143 -68 222t-182 79q-112 0 -180 -79.5t-68 -221.5zM385 0v6 l639 1387h41v-7l-641 -1386h-39zM772 315q0 159 79.5 249.5t209.5 90.5q131 0 211 -90.5t80 -249.5q0 -157 -80 -246t-211 -89q-130 0 -209.5 89t-79.5 246zM813 315q0 -140 68 -218.5t180 -78.5q114 0 182 78.5t68 218.5q0 143 -68 222t-182 79q-112 0 -180 -79.5 t-68 -221.5z" />
<glyph unicode="&#x26;" horiz-adv-x="1222" d="M133 334q0 62 21 117.5t51.5 94.5t76.5 75t83.5 57t83.5 43l-15 16q-3 3 -33 37.5t-36 42t-31 39.5t-33 45.5t-25 43t-22.5 50t-11.5 48t-6 53.5q0 147 86.5 232t234.5 85q135 0 228.5 -89.5t93.5 -221.5q0 -124 -56 -201.5t-157 -124.5l-152 -71l385 -449 q135 198 182 506l41 -8q-56 -324 -194 -531l202 -235v-8h-49l-180 208q-156 -206 -381 -206q-179 0 -283 94t-104 258zM174 332q0 -141 93.5 -225t254.5 -84q200 0 352 198l-397 465q-49 -23 -83 -42t-79 -52.5t-73 -68t-48 -84.5t-20 -107zM276 1098q0 -27 6 -54.5 t21.5 -57.5t25.5 -49.5t36.5 -53.5t34.5 -44t39 -46t32 -37l14 -19l164 74q191 89 191 291q0 113 -83.5 191.5t-199.5 78.5q-135 0 -208 -74.5t-73 -199.5z" />
<glyph unicode="'" horiz-adv-x="378" d="M170 920v473h39v-473h-39z" />
<glyph unicode="(" horiz-adv-x="491" d="M129 535q0 177 27 339.5t69.5 278.5t78.5 189t71 122l33 -26q-35 -51 -69.5 -122t-75 -184t-66 -269.5t-25.5 -327.5q0 -170 25.5 -326.5t66 -269.5t75.5 -185t69 -123l-33 -26q-34 48 -70.5 121.5t-79 189.5t-69.5 279t-27 340z" />
<glyph unicode=")" horiz-adv-x="491" d="M84 -369q26 39 53 89.5t61 137t60 182t43.5 226.5t17.5 269q0 139 -17.5 270.5t-43.5 226.5t-60 181t-61 136t-53 89l33 26q34 -48 70.5 -121.5t78.5 -189.5t69 -278.5t27 -339.5t-27 -340t-69 -279t-78.5 -189.5t-70.5 -121.5z" />
<glyph unicode="*" horiz-adv-x="864" d="M129 1143l12 37l271 -74v287h41v-287l270 74l12 -37l-274 -72l145 -254l-35 -16l-141 248l-139 -248l-33 16l139 256z" />
<glyph unicode="+" horiz-adv-x="1017" d="M123 598v41h366v432h39v-432h367v-41h-367v-432h-39v432h-366z" />
<glyph unicode="," horiz-adv-x="454" d="M158 -330l86 303q-38 0 -59 20t-21 50q0 80 63 80q31 0 48.5 -23.5t17.5 -56.5q0 -66 -40 -203t-65 -184z" />
<glyph unicode="-" horiz-adv-x="948" d="M166 598v43h616v-43h-616z" />
<glyph unicode="." horiz-adv-x="450" d="M166 55q0 76 57 76q64 0 64 -76q0 -75 -64 -75q-57 0 -57 75z" />
<glyph unicode="/" horiz-adv-x="833" d="M76 0v6l641 1387h41v-7l-641 -1386h-41z" />
<glyph unicode="0" horiz-adv-x="1251" d="M137 694q0 158 28 286.5t85.5 226.5t153 152t221.5 54q103 0 185 -35.5t138.5 -99t94 -154t54.5 -197.5t17 -233q0 -157 -28 -284.5t-85 -225t-152.5 -151t-223.5 -53.5q-102 0 -183.5 35.5t-138 98.5t-94 152.5t-55 196t-17.5 231.5zM178 694q0 -117 15.5 -216 t49.5 -183.5t85.5 -144t126.5 -92.5t170 -33q96 0 171.5 33.5t127 92t85.5 143.5t49 184t15 216q0 149 -24.5 269t-76.5 213.5t-140 144.5t-207 51q-94 0 -169.5 -34t-127 -94t-85.5 -145.5t-49.5 -186t-15.5 -218.5z" />
<glyph unicode="1" horiz-adv-x="817" d="M70 1141l499 252h39v-1393h-41v1346l-483 -242z" />
<glyph unicode="2" horiz-adv-x="1097" d="M123 956q5 206 112 331.5t304 125.5q131 0 224.5 -59t137 -153t43.5 -212q0 -138 -63 -248.5t-199 -240.5l-481 -459h784v-41h-850v41l520 494q86 82 136 145t81 141.5t31 167.5q0 170 -94 276.5t-272 106.5q-179 0 -274.5 -114.5t-98.5 -301.5h-41z" />
<glyph unicode="3" horiz-adv-x="1138" d="M145 82l17 43q181 -105 381 -105q179 0 300.5 96t121.5 259q0 148 -92.5 237.5t-260.5 89.5h-333v41h333q144 0 227 95t83 221q0 76 -31.5 136.5t-85 98.5t-121 58t-143.5 20q-198 0 -369 -110l-18 36q186 115 389 115q189 0 304.5 -93.5t115.5 -260.5q0 -125 -69.5 -221 t-182.5 -111q137 -22 216 -113t79 -239q0 -183 -130.5 -289t-332.5 -106q-197 0 -398 102z" />
<glyph unicode="4" horiz-adv-x="1259" d="M74 336v41l760 1016h49v-1016h293v-41h-293v-336h-41v336h-768zM125 377h717v962z" />
<glyph unicode="5" horiz-adv-x="1126" d="M115 86l18 43q178 -109 391 -109q84 0 159 22t139.5 68.5t102.5 128.5t38 191q0 75 -22.5 134t-61.5 98t-94.5 64t-118.5 35.5t-138 10.5h-335l-5 6l43 615h736v-41h-699l-39 -539h299q104 0 188 -21t150 -65.5t102 -119t36 -175.5q0 -95 -27.5 -172.5t-73.5 -128.5 t-108.5 -86t-130 -50t-140.5 -15q-78 0 -146 10.5t-122 31t-78.5 32t-62.5 32.5z" />
<glyph unicode="6" horiz-adv-x="1216" d="M133 698q0 212 60.5 372.5t179.5 251.5t282 91q127 0 230 -44.5t164 -102.5l-29 -35q-52 56 -148 98.5t-215 42.5q-224 0 -353.5 -186t-129.5 -488q0 -40 4 -114q20 39 44 77.5t68.5 89.5t94.5 88.5t122 64t150 26.5q199 0 318 -123.5t119 -343.5q0 -211 -126.5 -347 t-316.5 -136q-243 0 -380.5 195t-137.5 523zM186 524q34 -233 156 -368.5t309 -135.5q171 0 286.5 126.5t115.5 316.5q0 202 -110.5 314t-287.5 112q-83 0 -158.5 -32.5t-125 -75.5t-92.5 -100t-61.5 -92t-31.5 -65z" />
<glyph unicode="7" horiz-adv-x="944" d="M72 1352v41h823v-41l-563 -1352h-49v6l563 1346h-774z" />
<glyph unicode="8" horiz-adv-x="1189" d="M133 375q0 147 89 238.5t241 113.5q-127 15 -208 111.5t-81 220.5q0 167 116.5 260.5t305.5 93.5t304.5 -93.5t115.5 -260.5q0 -124 -80 -220.5t-207 -111.5q152 -22 241 -113.5t89 -238.5q0 -183 -130.5 -289t-332.5 -106q-203 0 -333 106t-130 289zM174 375 q0 -108 57 -190t152.5 -123.5t212.5 -41.5q179 0 300.5 96.5t121.5 258.5q0 151 -103.5 237t-316.5 86t-318.5 -86t-105.5 -237zM215 1059q0 -60 21.5 -114t65.5 -99t120.5 -71.5t175.5 -26.5q98 0 173 26.5t118 71.5t64.5 99t21.5 114q0 152 -104.5 232.5t-274.5 80.5 t-275.5 -81t-105.5 -232z" />
<glyph unicode="9" horiz-adv-x="1216" d="M123 930q0 211 126 347t316 136q243 0 380.5 -195.5t137.5 -523.5q0 -212 -60.5 -372t-179.5 -251t-282 -91q-127 0 -229.5 44.5t-163.5 102.5l29 35q53 -56 148 -99t214 -43q224 0 353.5 186t129.5 488q0 60 -6 115q-19 -40 -43.5 -78.5t-68.5 -89.5t-94 -88.5 t-121.5 -63.5t-149.5 -26q-199 0 -317.5 123.5t-118.5 343.5zM164 930q0 -202 110 -314t287 -112q60 0 116.5 17t99 42.5t82.5 62.5t66 69.5t50 71t34.5 59.5t20.5 42q-34 233 -156 368.5t-309 135.5q-171 0 -286 -126t-115 -316z" />
<glyph unicode=":" horiz-adv-x="452" d="M166 55q0 76 57 76q64 0 64 -76q0 -75 -64 -75q-57 0 -57 75zM166 1024q0 76 57 76q64 0 64 -76t-64 -76q-57 0 -57 76z" />
<glyph unicode=";" horiz-adv-x="475" d="M170 -330l86 303q-38 0 -59 20t-21 50q0 39 17 59.5t47 20.5q31 0 48 -23.5t17 -56.5q0 -67 -39.5 -203.5t-64.5 -183.5zM180 1024q0 76 58 76q63 0 63 -76t-63 -76q-58 0 -58 76z" />
<glyph unicode="&#x3c;" horiz-adv-x="1015" d="M96 600v41l764 446h6v-45l-729 -421l729 -422v-45h-6z" />
<glyph unicode="=" horiz-adv-x="1105" d="M168 307v41h770v-41h-770zM168 891v41h770v-41h-770z" />
<glyph unicode="&#x3e;" horiz-adv-x="1015" d="M150 154v45l729 422l-729 421v45h6l764 -446v-41l-764 -446h-6z" />
<glyph unicode="?" horiz-adv-x="817" d="M88 1206q91 207 315 207q137 0 223.5 -89t86.5 -222q0 -86 -27.5 -157.5t-87.5 -145.5l-158 -195q-39 -48 -54 -82t-15 -73q0 -35 6 -58h-41q-6 27 -6 58q0 51 19 88t63 92l157 196q56 69 79.5 132.5t23.5 144.5q0 113 -74.5 191.5t-196.5 78.5q-203 0 -280 -188zM303 55 q0 76 57 76q62 0 62 -76q0 -75 -62 -75q-57 0 -57 75z" />
<glyph unicode="@" horiz-adv-x="1777" d="M117 539q0 212 60 388t165.5 295t251 185t313.5 66q169 0 313 -57.5t246 -161.5t159.5 -256.5t57.5 -335.5q0 -161 -31 -287t-82.5 -201t-113 -113t-127.5 -38q-73 0 -102.5 30t-40.5 101q-48 -60 -126.5 -95.5t-170.5 -35.5q-186 0 -298 138t-112 357q0 222 112.5 363 t297.5 141q94 0 171 -32t124 -91v107h41v-807q0 -68 23.5 -102t82.5 -34q57 0 111 35.5t100 104.5t74.5 188.5t28.5 270.5q0 175 -54 320t-151 243.5t-233.5 152.5t-299.5 54q-161 0 -299 -62t-237.5 -175.5t-156 -282.5t-56.5 -373q0 -203 56.5 -371.5t156 -283 t237.5 -177.5t299 -63q185 0 346 90l17 -37q-168 -94 -363 -94q-168 0 -313.5 66.5t-251 186.5t-165.5 296.5t-60 386.5zM520 518q0 -200 102 -327.5t269 -127.5q91 0 168.5 42.5t124.5 105.5v631q-44 62 -121.5 100.5t-171.5 38.5q-167 0 -269 -130t-102 -333z" />
<glyph unicode="A" d="M66 0l532 1393h41l498 -1393h-41l-135 377h-711l-144 -377h-40zM268 418h678l-330 928z" />
<glyph unicode="B" horiz-adv-x="1175" d="M209 0v1393h373q179 0 280 -88.5t101 -264.5q0 -123 -62 -203t-170 -114q156 -22 241 -113t85 -254q0 -166 -100 -261t-295 -95h-453zM250 41h412q171 0 262.5 83.5t91.5 231.5q0 170 -106.5 255t-295.5 85h-364v-655zM250 737h315q161 0 259 78.5t98 224.5 q0 158 -90.5 235t-251.5 77h-330v-615z" />
<glyph unicode="C" horiz-adv-x="1269" d="M131 696q0 335 155 526t419 191q141 0 255 -62t191 -165l-33 -29q-71 96 -178 155.5t-235 59.5q-248 0 -390.5 -180t-142.5 -496t142.5 -496t390.5 -180q128 0 235 60t178 156l33 -29q-77 -103 -191 -165t-255 -62q-264 0 -419 190.5t-155 525.5z" />
<glyph unicode="D" horiz-adv-x="1368" d="M209 0v1393h418q132 -1 243.5 -47t193.5 -132.5t128.5 -220t46.5 -299.5q0 -165 -46.5 -297.5t-128.5 -218.5t-193.5 -132t-243.5 -46h-418zM250 41h377q255 0 413 171t158 482q0 158 -42.5 283.5t-119 207t-181 124.5t-228.5 43h-377v-1311z" />
<glyph unicode="E" horiz-adv-x="1202" d="M209 0v1393h874v-41h-833v-598h706v-41h-706v-672h833v-41h-874z" />
<glyph unicode="F" horiz-adv-x="1138" d="M209 0v1393h840v-41h-799v-674h706v-41h-706v-637h-41z" />
<glyph unicode="G" horiz-adv-x="1382" d="M127 694q0 166 49.5 303t135 227t200.5 139.5t246 49.5q136 0 239.5 -50.5t198.5 -150.5l-31 -28q-88 94 -183.5 141t-223.5 47q-122 0 -229.5 -46.5t-187.5 -132t-126.5 -214.5t-46.5 -285q0 -155 46.5 -283t126.5 -213t187.5 -131.5t229.5 -46.5q123 0 244 44t200 112 v463h-495v41h534v-528q-84 -74 -217.5 -123t-265.5 -49q-131 0 -246 49t-200.5 139t-135 226t-49.5 300z" />
<glyph unicode="H" horiz-adv-x="1454" d="M209 0v1393h41v-674h954v674h41v-1393h-41v678h-954v-678h-41z" />
<glyph unicode="I" horiz-adv-x="458" d="M209 0v1393h41v-1393h-41z" />
<glyph unicode="J" horiz-adv-x="1148" d="M70 455l39 6q14 -224 112 -333.5t289 -109.5q194 0 297.5 116.5t103.5 338.5v920h43v-920q0 -236 -117 -367t-327 -131q-206 0 -316 122t-124 358z" />
<glyph unicode="K" horiz-adv-x="1161" d="M209 0v1393h41v-691h182l588 691h49v-7l-604 -706l657 -676v-4h-59l-637 662h-176v-662h-41z" />
<glyph unicode="L" horiz-adv-x="1013" d="M209 0v1393h41v-1352h721v-41h-762z" />
<glyph unicode="M" horiz-adv-x="1638" d="M209 0v1393h39l571 -826l572 826h39v-1393h-41v1323l-560 -809h-18l-561 809v-1323h-41z" />
<glyph unicode="N" horiz-adv-x="1447" d="M209 0v1393h39l950 -1332v1332h41v-1393h-41l-948 1325v-1325h-41z" />
<glyph unicode="O" horiz-adv-x="1472" d="M127 694q0 214 80 378.5t217.5 252.5t310.5 88q174 0 313 -88t218.5 -252.5t79.5 -378.5q0 -159 -46.5 -293.5t-127.5 -226t-194 -143t-243 -51.5q-172 0 -310 87.5t-218 251t-80 375.5zM168 694q0 -302 159.5 -488t407.5 -186q249 0 409.5 186t160.5 488 q0 305 -160.5 491.5t-409.5 186.5q-248 0 -407.5 -186.5t-159.5 -491.5z" />
<glyph unicode="P" horiz-adv-x="1177" d="M209 0v1393h463q83 0 155.5 -29t130.5 -85.5t91.5 -149.5t33.5 -211q0 -107 -34 -196t-91 -147.5t-131 -91t-155 -32.5h-422v-451h-41zM250 492h418q156 0 265 115.5t109 310.5q0 109 -30 193.5t-82.5 136t-119 78t-142.5 26.5h-418v-860z" />
<glyph unicode="Q" horiz-adv-x="1472" d="M127 694q0 214 80 378.5t217.5 252.5t310.5 88q174 0 313 -88t218.5 -252.5t79.5 -378.5q0 -297 -149.5 -489t-387.5 -219q20 -18 61.5 -64t79 -83t88.5 -76.5t113.5 -62t130.5 -22.5q114 0 207 37l10 -45q-97 -39 -217 -39q-72 0 -141.5 26t-121 64.5t-99 84t-80.5 84 t-61.5 64.5t-45.5 26q-173 1 -310 88.5t-216.5 250.5t-79.5 375zM168 694q0 -302 159.5 -488t407.5 -186q249 0 409.5 186t160.5 488q0 305 -160.5 491.5t-409.5 186.5q-248 0 -407.5 -186.5t-159.5 -491.5z" />
<glyph unicode="R" horiz-adv-x="1228" d="M209 0v1393h471q82 0 155 -26.5t131.5 -77.5t93 -135t34.5 -191q0 -132 -58 -230t-151 -146t-207 -48h-29l500 -535v-4h-57l-498 539h-344v-539h-41zM250 580h428q77 0 144.5 24.5t119 71t81.5 120.5t30 167q0 98 -30.5 174t-83.5 122t-119 69.5t-142 23.5h-428v-772z " />
<glyph unicode="S" horiz-adv-x="1101" d="M117 98l12 43q65 -43 176 -82t217 -39q184 0 304 93t120 252q0 115 -70.5 189t-216.5 112l-256 67q-274 73 -274 309q0 72 25.5 136.5t76 117.5t136 84t196.5 31q107 0 213.5 -33t177.5 -80l-18 -41q-59 44 -167 78.5t-206 34.5q-101 0 -179 -28t-123.5 -75t-68 -104 t-22.5 -121q0 -104 61 -169t185 -99l256 -72q157 -44 236 -121.5t79 -215.5q0 -179 -129.5 -282t-335.5 -103q-111 0 -225 37.5t-180 80.5z" />
<glyph unicode="T" horiz-adv-x="1081" d="M37 1352v41h1010v-41h-467v-1352h-41v1352h-502z" />
<glyph unicode="U" horiz-adv-x="1361" d="M195 549v844h41v-844q0 -119 26 -215t79 -168t139 -111t200 -39q113 0 200.5 42t140.5 116.5t80 169.5t27 207v842h41v-844q0 -117 -30.5 -219.5t-89 -182.5t-153.5 -126t-216 -46t-214.5 42.5t-152 119.5t-88.5 181t-30 231z" />
<glyph unicode="V" d="M84 1393h41l477 -1340l510 1340h43l-532 -1393h-43z" />
<glyph unicode="W" horiz-adv-x="1886" d="M84 1393h41l477 -1346l324 854l-174 492h41l475 -1346l510 1346h43l-531 -1393h-43l-303 854l-321 -854h-43z" />
<glyph unicode="X" horiz-adv-x="1175" d="M66 0v6l491 690l-491 690v7h51l471 -662l469 662h53v-7l-494 -690l494 -690v-6h-53l-469 662l-471 -662h-51z" />
<glyph unicode="Y" horiz-adv-x="1208" d="M70 1386v7h47l487 -742l490 742h45v-7l-514 -772v-614h-41v612z" />
<glyph unicode="Z" horiz-adv-x="1026" d="M92 0v41l791 1311h-791v41h842v-41l-791 -1311h791v-41h-842z" />
<glyph unicode="[" horiz-adv-x="585" d="M193 -385v1839h305v-43h-260v-1753h260v-43h-305z" />
<glyph unicode="\" horiz-adv-x="833" d="M76 1386v7h41l641 -1387v-6h-41z" />
<glyph unicode="]" horiz-adv-x="583" d="M88 -342h258v1753h-258v43h303v-1839h-303v43z" />
<glyph unicode="^" horiz-adv-x="946" d="M139 860v6l310 527h38l320 -527v-6h-43l-295 496l-289 -496h-41z" />
<glyph unicode="_" horiz-adv-x="1198" d="M164 -100h870v-43h-870v43z" />
<glyph unicode="`" horiz-adv-x="1044" d="M426 1518h49l143 -261h-47z" />
<glyph unicode="a" horiz-adv-x="1048" d="M106 309q0 99 38 173.5t106.5 118.5t155.5 65.5t192 21.5q120 0 229 -37v74q0 159 -77.5 241.5t-225.5 82.5q-175 0 -309 -76l-10 41q59 34 152 55t171 21q164 0 252 -93t88 -272v-725h-41v137q-149 -157 -362 -157q-161 0 -260 89t-99 240zM147 309q0 -132 88 -210.5 t232 -78.5q201 0 360 173v421q-36 13 -102 23t-127 10q-96 0 -175.5 -18.5t-142.5 -57.5t-98 -106t-35 -156z" />
<glyph unicode="b" horiz-adv-x="1144" d="M188 0v1454h41v-522q59 68 146.5 113t187.5 45q207 0 331 -148.5t124 -404.5t-124 -406.5t-331 -150.5q-100 0 -187.5 44t-146.5 111v-135h-41zM229 190q52 -70 141.5 -120t188.5 -50q192 0 305 137t113 373q0 240 -113.5 379.5t-304.5 139.5q-99 0 -188.5 -51.5 t-141.5 -123.5v-684z" />
<glyph unicode="c" horiz-adv-x="1040" d="M127 537q0 257 124.5 410t334.5 153q201 0 338 -162l-29 -31q-123 152 -309 152q-193 0 -305.5 -141.5t-112.5 -380.5t113 -382t305 -143q186 0 309 152l29 -31q-137 -162 -338 -162q-210 0 -334.5 154.5t-124.5 411.5z" />
<glyph unicode="d" horiz-adv-x="1146" d="M129 537q0 256 125 404.5t332 148.5q98 0 185 -44t147 -112v520h40v-1454h-40v133q-61 -67 -147 -110t-185 -43q-207 0 -332 150.5t-125 406.5zM170 530q0 -236 113 -373t305 -137q99 0 187 48.5t143 117.5v693q-54 72 -142 121t-188 49q-191 0 -304.5 -139.5 t-113.5 -379.5z" />
<glyph unicode="e" horiz-adv-x="1122" d="M127 532q0 164 56 292.5t163.5 202t251.5 73.5q81 0 147 -23.5t112 -64.5t77.5 -98t46 -122.5t14.5 -138.5q0 -76 -14 -141h-815q2 -112 29 -202.5t80 -158t138.5 -104.5t198.5 -37q184 0 342 144l25 -37q-156 -146 -367 -146q-126 0 -220.5 41.5t-151.5 118t-85 177 t-28 224.5zM166 553h782q8 62 8 100q0 82 -21.5 153.5t-63.5 129t-112 90.5t-161 33q-195 0 -311 -140.5t-121 -365.5z" />
<glyph unicode="f" horiz-adv-x="802" d="M94 956v39h205v166q0 147 68.5 230.5t197.5 83.5q73 0 132.5 -34.5t97.5 -82.5l-27 -29q-94 109 -201 109q-114 0 -170.5 -71.5t-56.5 -205.5v-166h385v-39h-385v-956h-41v956h-205z" />
<glyph unicode="g" horiz-adv-x="1144" d="M129 573q0 230 125 373.5t330 143.5q97 0 182.5 -47.5t148.5 -118.5v147h41v-1042q0 -110 -30.5 -195t-84.5 -136.5t-121.5 -77.5t-146.5 -26q-168 0 -332 116q-6 3 -8 5l15 43q157 -123 323 -123q148 0 246 98.5t98 293.5v196q-62 -70 -148 -116t-183 -46 q-204 0 -329.5 142.5t-125.5 369.5zM170 573q0 -212 113.5 -341.5t304.5 -129.5q180 0 327 174v592q-149 181 -323 181q-192 0 -307 -129t-115 -347z" />
<glyph unicode="h" horiz-adv-x="1161" d="M188 0v1454h41v-604q53 117 149 178.5t230 61.5q183 0 278 -109t95 -313v-668h-41v668q0 184 -84 282.5t-250 98.5q-144 0 -242 -85t-135 -223v-741h-41z" />
<glyph unicode="i" horiz-adv-x="417" d="M170 1378q0 54 41 54q37 0 37 -54q0 -26 -10.5 -39.5t-26.5 -13.5q-41 0 -41 53zM188 0v1071h41v-1071h-41z" />
<glyph unicode="j" horiz-adv-x="417" d="M0 -369q101 58 144.5 131t43.5 205v1104h41v-1106q0 -139 -52 -225.5t-159 -142.5zM172 1378q0 54 39 54q37 0 37 -54q0 -53 -37 -53q-39 0 -39 53z" />
<glyph unicode="k" horiz-adv-x="929" d="M188 0v1454h41v-868l555 485h54v-6l-564 -494l588 -565v-6h-57l-576 557v-557h-41z" />
<glyph unicode="l" horiz-adv-x="534" d="M201 182v1272h41v-1274q0 -89 28 -124.5t86 -35.5q65 0 140 52l16 -35q-28 -23 -71.5 -40t-84.5 -17q-76 0 -115.5 47t-39.5 155z" />
<glyph unicode="m" horiz-adv-x="1816" d="M188 0v1071h41v-213q53 117 139.5 174.5t217.5 57.5q136 0 223.5 -65.5t118.5 -193.5q98 259 348 259q185 0 272.5 -99t87.5 -303v-688h-41v688q0 184 -77 272.5t-244 88.5q-247 0 -332 -301q0 -10 1 -30t1 -30v-688h-43v688q0 180 -81 270.5t-236 90.5 q-141 0 -229 -83.5t-126 -224.5v-741h-41z" />
<glyph unicode="n" horiz-adv-x="1161" d="M188 0v1071h41v-221q53 117 149 178.5t230 61.5q183 0 278 -109t95 -313v-668h-41v668q0 184 -84 282.5t-250 98.5q-144 0 -242 -85t-135 -223v-741h-41z" />
<glyph unicode="o" horiz-adv-x="1214" d="M127 532q0 257 132.5 412.5t344.5 155.5q217 0 350 -155t133 -413q0 -255 -133 -408t-350 -153q-213 0 -345 153.5t-132 407.5zM166 532q0 -236 121.5 -378t316.5 -142q198 0 320.5 142t122.5 378q0 240 -122.5 383.5t-320.5 143.5q-195 0 -316.5 -144t-121.5 -383z" />
<glyph unicode="p" horiz-adv-x="1144" d="M188 -385v1456h41v-133q58 68 145 112t187 44q207 0 332 -150.5t125 -406.5t-125 -404.5t-332 -148.5q-100 0 -186.5 43t-145.5 110v-522h-41zM229 193q51 -70 140.5 -119t189.5 -49q192 0 305 139t113 379q0 236 -113 373t-305 137q-100 0 -189.5 -49t-140.5 -119v-692z " />
<glyph unicode="q" horiz-adv-x="1146" d="M129 530q0 256 124 406.5t331 150.5q100 0 186.5 -44t147.5 -113v141h40v-1456h-40v518q-61 -68 -148 -112t-186 -44q-207 0 -331 148.5t-124 404.5zM170 537q0 -240 113.5 -379.5t304.5 -139.5q99 0 187 50t143 122v684q-55 72 -143 122.5t-187 50.5q-192 0 -305 -137 t-113 -373z" />
<glyph unicode="r" horiz-adv-x="735" d="M188 0v1071h41v-233q42 125 107 188.5t168 63.5q101 0 180 -76l-27 -33q-74 68 -155 68q-55 0 -99.5 -24t-76.5 -70t-54.5 -100t-42.5 -128v-727h-41z" />
<glyph unicode="s" horiz-adv-x="933" d="M121 70l14 43q143 -93 324 -93q144 0 233.5 75t89.5 184q0 87 -61 140.5t-174 86.5l-160 45q-136 39 -198 94.5t-62 169.5q0 119 94.5 197t251.5 78q80 0 172 -23.5t141 -54.5l-14 -39q-55 31 -137.5 53.5t-161.5 22.5q-141 0 -223 -65.5t-82 -168.5q0 -97 53.5 -143 t175.5 -82l160 -45q130 -38 198 -100t68 -164q0 -131 -101 -216t-263 -85q-100 0 -188.5 26.5t-149.5 63.5z" />
<glyph unicode="t" horiz-adv-x="813" d="M78 1030v41h192l2 272h37v-272h408v-41h-408v-780q0 -119 50 -174.5t149 -55.5q57 0 124 26.5t113 66.5l21 -39q-124 -94 -262 -94q-236 0 -236 268v782h-190z" />
<glyph unicode="u" horiz-adv-x="1159" d="M178 403v668h41v-668q0 -184 84 -282t250 -98q144 0 242 84.5t135 222.5v741h41v-1071h-41v221q-109 -239 -379 -239q-183 0 -278 108.5t-95 312.5z" />
<glyph unicode="v" horiz-adv-x="1079" d="M82 1071h47l412 -1032l409 1032h47l-432 -1071h-51z" />
<glyph unicode="w" horiz-adv-x="1740" d="M88 1071h47l354 -1016l357 1016h49l354 -1016l357 1016h47l-379 -1071h-49l-355 1024l-356 -1024h-49z" />
<glyph unicode="x" horiz-adv-x="985" d="M82 0v6l379 526l-379 533v6h49l361 -504l362 504h49v-6l-383 -533l383 -526v-6h-51l-360 500l-357 -500h-53z" />
<glyph unicode="y" horiz-adv-x="1067" d="M29 -342l14 37q85 -60 193 -60q95 0 148.5 62t102.5 197l35 104l-452 1073h45l430 -1024l381 1024h45l-443 -1188q-27 -72 -52 -119.5t-59 -89t-78.5 -61t-102.5 -19.5q-124 0 -207 64z" />
<glyph unicode="z" horiz-adv-x="919" d="M102 0v41l662 989h-662v41h715v-41l-663 -989h663v-41h-715z" />
<glyph unicode="{" horiz-adv-x="505" d="M115 510v41q161 0 161 158q0 79 -30 182t-60 199t-30 157q0 84 46 145.5t144 61.5h49v-41h-47q-70 0 -111.5 -46.5t-41.5 -119.5q0 -57 30 -153.5t60 -202t30 -182.5q0 -79 -27 -120.5t-93 -58.5q67 -17 93.5 -59t26.5 -127q0 -75 -30 -179.5t-60 -201t-30 -153.5 q0 -73 41.5 -119.5t111.5 -46.5h47v-41h-49q-98 0 -144 61.5t-46 145.5q0 61 30 157t60 199t30 182q0 80 -38.5 121t-122.5 41z" />
<glyph unicode="|" horiz-adv-x="425" d="M193 -385v1839h40v-1839h-40z" />
<glyph unicode="}" horiz-adv-x="505" d="M111 -356h47q70 0 111.5 46.5t41.5 119.5q0 46 -19 117t-41.5 135t-41.5 143t-19 139q0 85 27 127t94 59q-67 17 -94 58.5t-27 120.5q0 61 19 141t41.5 144t41.5 135.5t19 117.5q0 73 -41.5 119.5t-111.5 46.5h-47v41h49q98 0 144 -61.5t46 -145.5q0 -50 -19 -121 t-41.5 -133.5t-41.5 -141.5t-19 -142q0 -158 162 -158v-41q-162 0 -162 -162q0 -63 19 -142t41.5 -141.5t41.5 -133.5t19 -121q0 -84 -46 -145.5t-144 -61.5h-49v41z" />
<glyph unicode="~" horiz-adv-x="919" d="M168 559q5 76 43.5 129t101.5 53q32 0 65.5 -20t62.5 -49t56.5 -58t56.5 -49t54 -20q51 0 76 38.5t33 110.5l39 -8q-9 -82 -47.5 -132t-100.5 -50q-32 0 -65 20t-60.5 49t-54.5 58t-57 49t-58 20q-42 0 -72 -37.5t-34 -111.5z" />
<glyph unicode="&#xa1;" horiz-adv-x="438" d="M158 1024q0 76 61 76q60 0 60 -76t-60 -76q-61 0 -61 76zM199 -311v999h41v-999h-41z" />
<glyph unicode="&#xa2;" horiz-adv-x="1091" d="M127 537q0 257 124.5 410t334.5 153q51 0 108 -13l49 207l33 -10l-49 -207q111 -35 197 -139l-29 -31q-82 97 -178 131l-238 -1013q54 -13 107 -13q186 0 309 152l29 -31q-137 -162 -338 -162q-62 0 -117 15l-59 -258l-35 10l59 258q-145 50 -226 192t-81 349zM168 537 q0 -190 72.5 -322.5t203.5 -179.5l240 1012q-46 12 -98 12q-193 0 -305.5 -141.5t-112.5 -380.5z" />
<glyph unicode="&#xa3;" horiz-adv-x="1110" d="M102 147q0 79 48 131t124 52q27 0 57.5 -10t43.5 -21q-1 30 1 38.5t-1.5 40t-3.5 41.5t-5 42.5t-6.5 44.5t-7.5 45.5t-8.5 46.5t-8.5 47.5t-9 48.5h-179v41h172q-26 146 -26 283q0 174 83.5 284.5t239.5 110.5q65 0 121.5 -21.5t96.5 -57.5t63.5 -65t42.5 -61l-29 -30 q-54 79 -89 112q-88 82 -204 82q-137 0 -210.5 -98.5t-73.5 -255.5q0 -116 26 -283h455v-41h-448q3 -19 10 -55.5t10 -54.5t9.5 -53.5t8.5 -52.5t6.5 -51t4 -49.5t1.5 -49t-1 -47.5q27 -18 75 -65.5t88.5 -88.5t90.5 -74t88 -33q188 0 188 394h41q0 -434 -227 -434 q-46 0 -99.5 32t-93.5 71.5t-86 85t-71 62.5q-27 -251 -172 -251q-65 0 -100.5 46t-35.5 121zM143 147q0 -56 22.5 -91.5t72.5 -35.5q44 0 73 33.5t42 81.5t20 117q-47 37 -101 37q-55 0 -92 -39t-37 -103z" />
<glyph unicode="&#xa4;" horiz-adv-x="1071" d="M158 270l118 117q-83 92 -83 229q0 140 83 232l-118 119l30 30l119 -120q92 79 225 79q140 0 230 -84l123 125l30 -30l-124 -123q81 -94 81 -228q0 -130 -79 -225l122 -121l-30 -30l-123 122q-91 -81 -230 -81q-134 0 -227 77l-117 -118zM233 616q0 -128 84 -211t215 -83 q133 0 216 83t83 211q0 130 -83.5 214.5t-215.5 84.5q-131 0 -215 -84.5t-84 -214.5z" />
<glyph unicode="&#xa5;" horiz-adv-x="1038" d="M88 1386v7h45l385 -738l383 738h47v-7l-399 -751h319v-41h-329v-182h329v-41h-329v-371h-41v371h-328v41h328v182h-328v41h315z" />
<glyph unicode="&#xa6;" horiz-adv-x="434" d="M197 326h41v-711h-41v711zM197 768v686h41v-686h-41z" />
<glyph unicode="&#xa7;" horiz-adv-x="1140" d="M139 604q0 107 69.5 192.5t209.5 112.5l-88 17q-73 9 -129 61t-56 141q0 115 111.5 200t306.5 85q225 0 414 -90l-14 -39q-68 35 -176.5 62.5t-223.5 27.5q-176 0 -276.5 -74t-100.5 -172q0 -136 154 -163l338 -60q152 -27 237.5 -107t85.5 -206q0 -110 -71 -186.5 t-199 -102.5q64 -14 107.5 -29.5t83.5 -40.5t59.5 -64t19.5 -91q0 -131 -123 -205t-313 -74q-123 0 -231 28t-176 64l12 39q66 -34 171.5 -62t223.5 -28q112 0 200 26.5t142 81t54 130.5q0 43 -16.5 74t-53 52t-76 33.5t-104.5 26.5l-312 66q-138 30 -199 93t-61 181z M178 604q0 -100 52 -154.5t178 -80.5l200 -41q161 2 257 72t96 192q0 108 -74 178t-219 96l-140 25q-91 -2 -161 -28.5t-110 -68.5t-59.5 -90t-19.5 -100z" />
<glyph unicode="&#xa8;" horiz-adv-x="1044" d="M268 1378q0 54 41 54q37 0 37 -54q0 -26 -10.5 -39.5t-26.5 -13.5q-41 0 -41 53zM698 1378q0 54 41 54q37 0 37 -54q0 -26 -10.5 -39.5t-26.5 -13.5q-41 0 -41 53z" />
<glyph unicode="&#xa9;" horiz-adv-x="1687" d="M127 694q0 152 54.5 285.5t149.5 228.5t227.5 150t283.5 55q152 0 285.5 -55t228.5 -150t150 -228.5t55 -285.5q0 -201 -93 -364.5t-258 -256.5t-368 -93q-201 0 -365 93t-257 256.5t-93 364.5zM168 694q0 -141 52 -266.5t141 -214.5t214.5 -141t266.5 -52q143 0 269 52 t215.5 141t141.5 214.5t52 266.5q0 143 -52 269t-141.5 215.5t-215.5 141.5t-269 52q-141 0 -266.5 -52t-214.5 -141.5t-141 -215.5t-52 -269zM489 696q0 153 102 255t257 102q170 0 272 -121l-26 -25q-42 51 -107 78t-141 27q-138 0 -227 -89.5t-89 -226.5 q0 -138 89 -226.5t227 -88.5q76 0 141 26.5t107 75.5l26 -24q-105 -121 -272 -121q-155 0 -257 102t-102 256z" />
<glyph unicode="&#xaa;" horiz-adv-x="882" d="M172 946q0 114 76 172t201 58q53 0 116 -19v41q0 89 -36.5 129.5t-116.5 40.5q-100 0 -176 -45l-11 41q34 20 89.5 32.5t97.5 12.5q99 0 145.5 -51.5t46.5 -157.5v-348q0 -42 11.5 -59t43.5 -17q18 0 60 33l10 -39q-37 -33 -80 -33q-78 0 -84 90q-82 -90 -190 -90 q-93 0 -148 59t-55 150zM186 498v41h516v-41h-516zM211 946q0 -75 44.5 -121.5t119.5 -46.5q107 0 190 96v242q-47 19 -116 19q-109 0 -173.5 -45.5t-64.5 -143.5z" />
<glyph unicode="&#xab;" horiz-adv-x="890" d="M127 612v17l274 397h7l14 -33l-252 -372l254 -373l-16 -33h-7zM457 612v17l274 397h6l15 -33l-252 -372l254 -373l-17 -33h-6z" />
<glyph unicode="&#xac;" horiz-adv-x="1128" d="M188 721v41h773v-473h-39v432h-734z" />
<glyph unicode="&#xad;" horiz-adv-x="948" d="M166 598v43h616v-43h-616z" />
<glyph unicode="&#xae;" horiz-adv-x="1687" d="M127 694q0 152 54.5 285.5t149.5 228.5t227.5 150t283.5 55q152 0 285.5 -55t228.5 -150t150 -228.5t55 -285.5q0 -201 -93 -364.5t-258 -256.5t-368 -93q-201 0 -365 93t-257 256.5t-93 364.5zM168 694q0 -141 52 -266.5t141 -214.5t214.5 -141t266.5 -52q143 0 269 52 t215.5 141t141.5 214.5t52 266.5q0 143 -52 269t-141.5 215.5t-215.5 141.5t-269 52q-141 0 -266.5 -52t-214.5 -141.5t-141 -215.5t-52 -269zM592 346v696h301q97 0 163 -55.5t66 -161.5q0 -51 -17 -91t-42 -63t-57.5 -38t-60 -20t-52.5 -5h-45l311 -258v-4h-59l-314 262 h-153v-262h-41zM633 647h260q80 0 134 47.5t54 128.5q0 89 -54.5 136t-133.5 47h-260v-359z" />
<glyph unicode="&#xaf;" horiz-adv-x="1044" d="M322 1337v41h399v-41h-399z" />
<glyph unicode="&#xb0;" horiz-adv-x="843" d="M133 1071q0 158 80.5 249t210.5 91t209.5 -90.5t79.5 -249.5q0 -157 -79.5 -246.5t-209.5 -89.5t-210.5 89.5t-80.5 246.5zM174 1071q0 -140 67.5 -217.5t182.5 -77.5t182.5 77.5t67.5 217.5q0 142 -67.5 220.5t-182.5 78.5t-182.5 -78.5t-67.5 -220.5z" />
<glyph unicode="&#xb1;" horiz-adv-x="1161" d="M195 207v41h772v-41h-772zM195 821v41h366v432h39v-432h367v-41h-367v-370h-39v370h-366z" />
<glyph unicode="&#xb2;" horiz-adv-x="569" d="M88 1407q2 95 53 153t142 58q90 0 137 -55.5t47 -141.5q0 -63 -28 -115.5t-89 -107.5l-198 -180h333v-37h-391v35l232 207q53 46 77.5 92t24.5 102q0 71 -37.5 116.5t-107.5 45.5q-75 0 -115.5 -49t-42.5 -127z" />
<glyph unicode="&#xb3;" horiz-adv-x="571" d="M88 1016l10 37q83 -43 170 -43q75 0 124.5 39t49.5 106q0 60 -38.5 96.5t-108.5 36.5h-145v35h145q60 0 94.5 39t34.5 90q0 61 -41.5 94t-114.5 33q-49 0 -82.5 -9t-83.5 -38l-10 37q90 49 176 49q88 0 141.5 -43.5t53.5 -120.5q0 -110 -96 -145q53 -11 83.5 -52 t30.5 -106q0 -83 -59 -131.5t-154 -48.5q-21 0 -42.5 2.5t-36.5 6t-33.5 9.5t-27 9.5t-23.5 10t-17 7.5z" />
<glyph unicode="&#xb4;" horiz-adv-x="1044" d="M426 1257l143 261h49l-145 -261h-47z" />
<glyph unicode="&#xb5;" horiz-adv-x="1087" d="M188 -385v1456h41v-663q0 -187 79 -287.5t237 -100.5q135 0 224.5 79.5t129.5 215.5v756h41v-1071h-41v215q-48 -112 -138.5 -173.5t-217.5 -61.5q-233 0 -314 192v-557h-41z" />
<glyph unicode="&#xb6;" horiz-adv-x="825" d="M74 868q0 95 50 148t130 55h137v-1456h-41v1053h-96q-79 0 -129.5 53t-50.5 147zM596 -385v1456h39v-1456h-39z" />
<glyph unicode="&#xb7;" horiz-adv-x="452" d="M166 614q0 76 57 76q64 0 64 -76q0 -75 -64 -75q-57 0 -57 75z" />
<glyph unicode="&#xb8;" horiz-adv-x="1044" d="M381 -379l10 39q59 -25 111 -25q56 0 88.5 25t32.5 76q0 82 -103 82q-49 0 -104 -19l-4 6l41 199h36l-30 -154q36 9 63 9q66 0 104 -33.5t38 -89.5q0 -68 -46 -105t-116 -37q-62 0 -121 27z" />
<glyph unicode="&#xb9;" horiz-adv-x="428" d="M47 1485l227 121h31v-627h-37v584l-207 -107z" />
<glyph unicode="&#xba;" horiz-adv-x="917" d="M168 1071q0 158 80.5 249t210.5 91t209.5 -90.5t79.5 -249.5q0 -157 -79.5 -246.5t-209.5 -89.5t-210.5 89.5t-80.5 246.5zM203 498v41h514v-41h-514zM209 1071q0 -140 67.5 -217.5t182.5 -77.5t182.5 77.5t67.5 217.5q0 142 -67.5 220.5t-182.5 78.5t-182.5 -78.5 t-67.5 -220.5z" />
<glyph unicode="&#xbb;" horiz-adv-x="888" d="M137 993l17 33h6l274 -397v-17l-274 -397h-6l-15 33l252 373zM467 993l16 33h6l273 -397v-17l-273 -397h-6l-14 33l252 373z" />
<glyph unicode="&#xbc;" horiz-adv-x="1388" d="M68 1280l227 121h31v-627h-37v584l-207 -107zM279 0v6l641 1387h41v-7l-642 -1386h-40zM805 145v31l328 451h45v-449h125v-33h-125v-145h-39v145h-334zM852 178h287v397z" />
<glyph unicode="&#xbd;" horiz-adv-x="1310" d="M68 1280l227 121h31v-627h-37v584l-207 -107zM279 0v6l641 1387h41v-7l-642 -1386h-40zM817 426q2 95 53 153t142 58q90 0 137 -55.5t47 -141.5q0 -63 -28 -115.5t-89 -107.5l-198 -180h333v-37h-391v35l232 207q53 46 77.5 92t24.5 102q0 71 -37.5 116.5t-107.5 45.5 q-75 0 -115.5 -49t-42.5 -127z" />
<glyph unicode="&#xbe;" horiz-adv-x="1548" d="M115 811l10 37q83 -43 170 -43q75 0 124.5 39t49.5 106q0 60 -38.5 96.5t-108.5 36.5h-146v35h146q60 0 94.5 39t34.5 90q0 61 -41.5 94t-114.5 33q-49 0 -82.5 -9t-83.5 -38l-10 37q90 49 176 49q88 0 141 -43.5t53 -120.5q0 -110 -96 -145q53 -11 84 -52t31 -106 q0 -83 -59 -131.5t-154 -48.5q-21 0 -42.5 2.5t-36.5 6t-33.5 9.5t-27 9.5t-23.5 10t-17 7.5zM440 0v6l641 1387h41v-7l-641 -1386h-41zM967 145v31l327 451h45v-449h125v-33h-125v-145h-39v145h-333zM1014 178h286v397z" />
<glyph unicode="&#xbf;" horiz-adv-x="798" d="M94 -23q0 86 27.5 158t87.5 146l158 194q38 47 53.5 81.5t15.5 74.5q0 34 -6 57h41q6 -27 6 -57q0 -51 -19 -88t-63 -92l-157 -197q-56 -69 -79.5 -132.5t-23.5 -144.5q0 -113 74.5 -191.5t196.5 -78.5q203 0 280 189l33 -23q-91 -207 -316 -207q-137 0 -223 89t-86 222z M385 1024q0 76 61 76q58 0 58 -76t-58 -76q-61 0 -61 76z" />
<glyph unicode="&#xc0;" d="M66 0l532 1393h41l498 -1393h-41l-135 377h-711l-144 -377h-40zM268 418h678l-330 928zM451 1839h49l143 -260h-47z" />
<glyph unicode="&#xc1;" d="M66 0l532 1393h41l498 -1393h-41l-135 377h-711l-144 -377h-40zM268 418h678l-330 928zM573 1579l144 260h49l-145 -260h-48z" />
<glyph unicode="&#xc2;" d="M66 0l532 1393h41l498 -1393h-41l-135 377h-711l-144 -377h-40zM268 418h678l-330 928zM397 1579l197 260h49l195 -260h-56l-166 221l-163 -221h-56z" />
<glyph unicode="&#xc3;" d="M66 0l532 1393h41l498 -1393h-41l-135 377h-711l-144 -377h-40zM268 418h678l-330 928zM348 1667q25 50 63 86.5t87 36.5q34 0 68 -24t58 -52t55 -52t58 -24q75 0 123 109l27 -27q-58 -123 -148 -123q-28 0 -55.5 15.5t-49.5 38t-43.5 45t-45.5 38t-47 15.5 q-72 0 -123 -109z" />
<glyph unicode="&#xc4;" d="M66 0l532 1393h41l498 -1393h-41l-135 377h-711l-144 -377h-40zM268 418h678l-330 928zM362 1700q0 53 41 53q37 0 37 -53q0 -26 -10.5 -39.5t-26.5 -13.5q-41 0 -41 53zM793 1700q0 53 41 53q36 0 36 -53t-36 -53q-41 0 -41 53z" />
<glyph unicode="&#xc5;" d="M66 0l518 1356q-72 12 -120 68t-48 130q0 83 58.5 142t141.5 59t142 -59t59 -142q0 -73 -47.5 -129.5t-118.5 -68.5l486 -1356h-41l-135 377h-711l-144 -377h-40zM268 418h678l-330 928zM457 1554q0 -66 46.5 -112.5t112.5 -46.5t113 46.5t47 112.5t-47 113t-113 47 t-112.5 -47t-46.5 -113z" />
<glyph unicode="&#xc6;" horiz-adv-x="1830" d="M37 0l794 1393h881v-41h-835v-598h706v-41h-706v-672h835v-41h-876v377h-535l-215 -377h-49zM328 418h508v895z" />
<glyph unicode="&#xc7;" horiz-adv-x="1269" d="M131 696q0 335 155 526t419 191q141 0 255 -62t191 -165l-33 -29q-71 96 -178 155.5t-235 59.5q-248 0 -390.5 -180t-142.5 -496t142.5 -496t390.5 -180q128 0 235 60t178 156l33 -29q-77 -103 -191 -165t-255 -62h-31l-25 -130q36 9 64 9q65 0 103 -33.5t38 -89.5 q0 -68 -46 -105t-116 -37q-62 0 -121 27l11 39q59 -25 110 -25q56 0 88.5 25t32.5 76q0 82 -102 82q-50 0 -105 -19l-4 6l37 179q-236 23 -372 211t-136 501z" />
<glyph unicode="&#xc8;" horiz-adv-x="1202" d="M209 0v1393h874v-41h-833v-598h706v-41h-706v-672h833v-41h-874zM479 1839h49l144 -260h-47z" />
<glyph unicode="&#xc9;" horiz-adv-x="1202" d="M209 0v1393h874v-41h-833v-598h706v-41h-706v-672h833v-41h-874zM610 1579l144 260h49l-146 -260h-47z" />
<glyph unicode="&#xca;" horiz-adv-x="1202" d="M209 0v1393h874v-41h-833v-598h706v-41h-706v-672h833v-41h-874zM426 1579l197 260h49l194 -260h-55l-166 221l-164 -221h-55z" />
<glyph unicode="&#xcb;" horiz-adv-x="1202" d="M209 0v1393h874v-41h-833v-598h706v-41h-706v-672h833v-41h-874zM393 1700q0 53 41 53q37 0 37 -53q0 -26 -10.5 -39.5t-26.5 -13.5q-41 0 -41 53zM823 1700q0 53 41 53q37 0 37 -53q0 -26 -10.5 -39.5t-26.5 -13.5q-41 0 -41 53z" />
<glyph unicode="&#xcc;" horiz-adv-x="458" d="M74 1839h49l143 -260h-47zM209 0v1393h41v-1393h-41z" />
<glyph unicode="&#xcd;" horiz-adv-x="458" d="M205 1579l143 260h49l-145 -260h-47zM209 0v1393h41v-1393h-41z" />
<glyph unicode="&#xce;" horiz-adv-x="458" d="M6 1579l197 260h49l194 -260h-55l-166 221l-164 -221h-55zM209 0v1393h41v-1393h-41z" />
<glyph unicode="&#xcf;" horiz-adv-x="458" d="M-29 1700q0 53 41 53q37 0 37 -53q0 -26 -10.5 -39.5t-26.5 -13.5q-41 0 -41 53zM209 0v1393h41v-1393h-41zM401 1700q0 53 41 53q37 0 37 -53q0 -26 -10.5 -39.5t-26.5 -13.5q-41 0 -41 53z" />
<glyph unicode="&#xd0;" horiz-adv-x="1378" d="M104 682v41h115v670h418q132 -1 243.5 -47t193.5 -132.5t128.5 -220t46.5 -299.5q0 -165 -46.5 -297.5t-128.5 -218.5t-193.5 -132t-243.5 -46h-418v682h-115zM260 41h377q255 0 413 171t158 482q0 158 -42.5 283.5t-119 207t-181 124.5t-228.5 43h-377v-629h350v-41 h-350v-641z" />
<glyph unicode="&#xd1;" horiz-adv-x="1447" d="M209 0v1393h39l950 -1332v1332h41v-1393h-41l-948 1325v-1325h-41zM471 1667q25 50 63 86.5t87 36.5q34 0 68 -24t58 -52t55 -52t58 -24q75 0 123 109l27 -27q-58 -123 -148 -123q-28 0 -55.5 15.5t-49.5 38t-43.5 45t-45.5 38t-47 15.5q-72 0 -123 -109z" />
<glyph unicode="&#xd2;" horiz-adv-x="1472" d="M127 694q0 214 80 378.5t217.5 252.5t310.5 88q174 0 313 -88t218.5 -252.5t79.5 -378.5q0 -159 -46.5 -293.5t-127.5 -226t-194 -143t-243 -51.5q-172 0 -310 87.5t-218 251t-80 375.5zM168 694q0 -302 159.5 -488t407.5 -186q249 0 409.5 186t160.5 488 q0 305 -160.5 491.5t-409.5 186.5q-248 0 -407.5 -186.5t-159.5 -491.5zM571 1839h50l143 -260h-47z" />
<glyph unicode="&#xd3;" horiz-adv-x="1472" d="M127 694q0 214 80 378.5t217.5 252.5t310.5 88q174 0 313 -88t218.5 -252.5t79.5 -378.5q0 -159 -46.5 -293.5t-127.5 -226t-194 -143t-243 -51.5q-172 0 -310 87.5t-218 251t-80 375.5zM168 694q0 -302 159.5 -488t407.5 -186q249 0 409.5 186t160.5 488 q0 305 -160.5 491.5t-409.5 186.5q-248 0 -407.5 -186.5t-159.5 -491.5zM711 1579l143 260h49l-145 -260h-47z" />
<glyph unicode="&#xd4;" horiz-adv-x="1472" d="M127 694q0 214 80 378.5t217.5 252.5t310.5 88q174 0 313 -88t218.5 -252.5t79.5 -378.5q0 -159 -46.5 -293.5t-127.5 -226t-194 -143t-243 -51.5q-172 0 -310 87.5t-218 251t-80 375.5zM168 694q0 -302 159.5 -488t407.5 -186q249 0 409.5 186t160.5 488 q0 305 -160.5 491.5t-409.5 186.5q-248 0 -407.5 -186.5t-159.5 -491.5zM514 1579l197 260h49l194 -260h-55l-166 221l-164 -221h-55z" />
<glyph unicode="&#xd5;" horiz-adv-x="1472" d="M127 694q0 214 80 378.5t217.5 252.5t310.5 88q174 0 313 -88t218.5 -252.5t79.5 -378.5q0 -159 -46.5 -293.5t-127.5 -226t-194 -143t-243 -51.5q-172 0 -310 87.5t-218 251t-80 375.5zM168 694q0 -302 159.5 -488t407.5 -186q249 0 409.5 186t160.5 488 q0 305 -160.5 491.5t-409.5 186.5q-248 0 -407.5 -186.5t-159.5 -491.5zM467 1667q25 51 62.5 87t86.5 36q34 0 68.5 -24t58.5 -52t55 -52t58 -24q75 0 123 109l27 -27q-58 -123 -148 -123q-28 0 -55.5 15.5t-50 38t-44 45t-45.5 38t-47 15.5q-71 0 -122 -109z" />
<glyph unicode="&#xd6;" horiz-adv-x="1472" d="M127 694q0 214 80 378.5t217.5 252.5t310.5 88q174 0 313 -88t218.5 -252.5t79.5 -378.5q0 -159 -46.5 -293.5t-127.5 -226t-194 -143t-243 -51.5q-172 0 -310 87.5t-218 251t-80 375.5zM168 694q0 -302 159.5 -488t407.5 -186q249 0 409.5 186t160.5 488 q0 305 -160.5 491.5t-409.5 186.5q-248 0 -407.5 -186.5t-159.5 -491.5zM483 1700q0 53 41 53q37 0 37 -53q0 -26 -10.5 -39.5t-26.5 -13.5q-41 0 -41 53zM913 1700q0 53 41 53q37 0 37 -53q0 -26 -10.5 -39.5t-26.5 -13.5q-41 0 -41 53z" />
<glyph unicode="&#xd7;" horiz-adv-x="901" d="M164 313l260 305l-260 306l29 28l258 -305l258 305l28 -28l-258 -306l258 -305l-28 -28l-258 305l-258 -305z" />
<glyph unicode="&#xd8;" horiz-adv-x="1472" d="M127 694q0 214 80 378.5t217.5 252.5t310.5 88q218 0 377 -137l80 117h43v-7l-94 -137q97 -96 151 -238t54 -317q0 -159 -46.5 -293.5t-127.5 -226t-194 -143t-243 -51.5q-215 0 -375 135l-77 -115h-43v6l92 135q-98 96 -151.5 237t-53.5 316zM168 694q0 -163 49.5 -296 t138.5 -222l731 1065q-147 131 -352 131q-248 0 -407.5 -186.5t-159.5 -491.5zM385 150q145 -130 350 -130q249 0 409.5 186t160.5 488q0 162 -49.5 295.5t-139.5 224.5z" />
<glyph unicode="&#xd9;" horiz-adv-x="1361" d="M195 549v844h41v-844q0 -119 26 -215t79 -168t139 -111t200 -39q113 0 200.5 42t140.5 116.5t80 169.5t27 207v842h41v-844q0 -117 -30.5 -219.5t-89 -182.5t-153.5 -126t-216 -46t-214.5 42.5t-152 119.5t-88.5 181t-30 231zM516 1839h49l144 -260h-47z" />
<glyph unicode="&#xda;" horiz-adv-x="1361" d="M195 549v844h41v-844q0 -119 26 -215t79 -168t139 -111t200 -39q113 0 200.5 42t140.5 116.5t80 169.5t27 207v842h41v-844q0 -117 -30.5 -219.5t-89 -182.5t-153.5 -126t-216 -46t-214.5 42.5t-152 119.5t-88.5 181t-30 231zM653 1579l144 260h49l-146 -260h-47z" />
<glyph unicode="&#xdb;" horiz-adv-x="1361" d="M195 549v844h41v-844q0 -119 26 -215t79 -168t139 -111t200 -39q113 0 200.5 42t140.5 116.5t80 169.5t27 207v842h41v-844q0 -117 -30.5 -219.5t-89 -182.5t-153.5 -126t-216 -46t-214.5 42.5t-152 119.5t-88.5 181t-30 231zM459 1579l196 260h50l194 -260h-55l-166 221 l-164 -221h-55z" />
<glyph unicode="&#xdc;" horiz-adv-x="1361" d="M195 549v844h41v-844q0 -119 26 -215t79 -168t139 -111t200 -39q113 0 200.5 42t140.5 116.5t80 169.5t27 207v842h41v-844q0 -117 -30.5 -219.5t-89 -182.5t-153.5 -126t-216 -46t-214.5 42.5t-152 119.5t-88.5 181t-30 231zM428 1700q0 53 41 53q37 0 37 -53 q0 -26 -10.5 -39.5t-26.5 -13.5q-41 0 -41 53zM858 1700q0 53 41 53q37 0 37 -53q0 -26 -10.5 -39.5t-26.5 -13.5q-41 0 -41 53z" />
<glyph unicode="&#xdd;" horiz-adv-x="1208" d="M70 1386v7h47l487 -742l490 742h45v-7l-514 -772v-614h-41v612zM578 1579l143 260h49l-145 -260h-47z" />
<glyph unicode="&#xde;" horiz-adv-x="1177" d="M209 0v1393h41v-246h422q85 0 155.5 -22.5t129.5 -71.5t92.5 -135.5t33.5 -204.5q0 -106 -33.5 -189.5t-91.5 -134t-130.5 -76.5t-155.5 -26h-422v-287h-41zM250 328h422q77 0 142.5 22.5t117 68t81 121t29.5 173.5q0 87 -19.5 155.5t-53 112.5t-81.5 72.5t-101 40.5 t-115 12h-422v-778z" />
<glyph unicode="&#xdf;" horiz-adv-x="1142" d="M188 0v961q0 236 105 375t282 139q145 0 249 -107t104 -264q0 -58 -20 -113t-48 -94t-56.5 -71t-48.5 -57t-20 -40q0 -12 30 -36t72.5 -58.5t85.5 -78.5t73 -109t30 -136q0 -155 -94 -243t-240 -88q-84 0 -153 21.5t-111 51.5l18 43q109 -76 244 -76q126 0 210.5 78.5 t84.5 212.5q0 58 -21.5 110t-54 88t-70 70t-70 57.5t-54 48t-21.5 44.5q0 23 20 52t48 60.5t56.5 68t48.5 87.5t20 107q0 146 -91.5 238t-222.5 92q-158 0 -251 -127.5t-93 -345.5v-961h-41z" />
<glyph unicode="&#xe0;" horiz-adv-x="1048" d="M106 309q0 99 38 173.5t106.5 118.5t155.5 65.5t192 21.5q120 0 229 -37v74q0 159 -77.5 241.5t-225.5 82.5q-175 0 -309 -76l-10 41q59 34 152 55t171 21q164 0 252 -93t88 -272v-725h-41v137q-149 -157 -362 -157q-161 0 -260 89t-99 240zM147 309q0 -132 88 -210.5 t232 -78.5q201 0 360 173v421q-36 13 -102 23t-127 10q-96 0 -175.5 -18.5t-142.5 -57.5t-98 -106t-35 -156zM385 1518h49l144 -261h-48z" />
<glyph unicode="&#xe1;" horiz-adv-x="1048" d="M106 309q0 99 38 173.5t106.5 118.5t155.5 65.5t192 21.5q120 0 229 -37v74q0 159 -77.5 241.5t-225.5 82.5q-175 0 -309 -76l-10 41q59 34 152 55t171 21q164 0 252 -93t88 -272v-725h-41v137q-149 -157 -362 -157q-161 0 -260 89t-99 240zM147 309q0 -132 88 -210.5 t232 -78.5q201 0 360 173v421q-36 13 -102 23t-127 10q-96 0 -175.5 -18.5t-142.5 -57.5t-98 -106t-35 -156zM508 1257l143 261h49l-145 -261h-47z" />
<glyph unicode="&#xe2;" horiz-adv-x="1048" d="M106 309q0 99 38 173.5t106.5 118.5t155.5 65.5t192 21.5q120 0 229 -37v74q0 159 -77.5 241.5t-225.5 82.5q-175 0 -309 -76l-10 41q59 34 152 55t171 21q164 0 252 -93t88 -272v-725h-41v137q-149 -157 -362 -157q-161 0 -260 89t-99 240zM147 309q0 -132 88 -210.5 t232 -78.5q201 0 360 173v421q-36 13 -102 23t-127 10q-96 0 -175.5 -18.5t-142.5 -57.5t-98 -106t-35 -156zM336 1257l196 261h50l194 -261h-55l-166 222l-164 -222h-55z" />
<glyph unicode="&#xe3;" horiz-adv-x="1048" d="M106 309q0 99 38 173.5t106.5 118.5t155.5 65.5t192 21.5q120 0 229 -37v74q0 159 -77.5 241.5t-225.5 82.5q-175 0 -309 -76l-10 41q59 34 152 55t171 21q164 0 252 -93t88 -272v-725h-41v137q-149 -157 -362 -157q-161 0 -260 89t-99 240zM147 309q0 -132 88 -210.5 t232 -78.5q201 0 360 173v421q-36 13 -102 23t-127 10q-96 0 -175.5 -18.5t-142.5 -57.5t-98 -106t-35 -156zM281 1346q60 122 149 122q28 0 55 -15.5t49.5 -38t44 -44.5t45.5 -37.5t46 -15.5q76 0 123 108l26 -26q-58 -123 -147 -123q-28 0 -55.5 15.5t-50 38t-44 44.5 t-45.5 37.5t-47 15.5q-72 0 -123 -108z" />
<glyph unicode="&#xe4;" horiz-adv-x="1048" d="M106 309q0 99 38 173.5t106.5 118.5t155.5 65.5t192 21.5q120 0 229 -37v74q0 159 -77.5 241.5t-225.5 82.5q-175 0 -309 -76l-10 41q59 34 152 55t171 21q164 0 252 -93t88 -272v-725h-41v137q-149 -157 -362 -157q-161 0 -260 89t-99 240zM147 309q0 -132 88 -210.5 t232 -78.5q201 0 360 173v421q-36 13 -102 23t-127 10q-96 0 -175.5 -18.5t-142.5 -57.5t-98 -106t-35 -156zM287 1378q0 54 41 54q37 0 37 -54q0 -26 -10.5 -39.5t-26.5 -13.5q-41 0 -41 53zM717 1378q0 54 41 54q37 0 37 -54q0 -26 -10.5 -39.5t-26.5 -13.5q-41 0 -41 53z " />
<glyph unicode="&#xe5;" horiz-adv-x="1048" d="M106 309q0 99 38 173.5t106.5 118.5t155.5 65.5t192 21.5q120 0 229 -37v74q0 159 -77.5 241.5t-225.5 82.5q-175 0 -309 -76l-10 41q59 34 152 55t171 21q164 0 252 -93t88 -272v-725h-41v137q-149 -157 -362 -157q-161 0 -260 89t-99 240zM147 309q0 -132 88 -210.5 t232 -78.5q201 0 360 173v421q-36 13 -102 23t-127 10q-96 0 -175.5 -18.5t-142.5 -57.5t-98 -106t-35 -156zM338 1372q0 83 59 142t142 59t141.5 -59t58.5 -142t-58.5 -142t-141.5 -59t-142 59t-59 142zM379 1372q0 -66 47 -113t113 -47t112.5 47t46.5 113t-46.5 113 t-112.5 47t-113 -47t-47 -113z" />
<glyph unicode="&#xe6;" horiz-adv-x="1738" d="M104 309q0 80 25 144t70 107.5t109 72.5t139 42t163 13q90 0 215 -35q3 71 -3 126.5t-25.5 108t-53.5 86.5t-91.5 54.5t-135.5 20.5q-158 0 -303 -76l-10 41q65 35 153.5 55.5t165.5 20.5q317 0 342 -310q18 55 46.5 105.5t73.5 101.5t112 82t147 31q98 0 171 -35.5 t115.5 -98.5t62.5 -141t20 -172q0 -72 -15 -141h-729q0 -233 90.5 -367.5t268.5 -134.5q103 0 181 38.5t153 107.5l26 -35q-164 -150 -360 -150q-74 0 -137.5 23t-107 61.5t-73 82.5t-45.5 93q-37 -64 -88 -117t-134 -93.5t-175 -40.5q-163 0 -263 89t-100 240zM145 309 q0 -132 90 -210.5t232 -78.5q121 0 220 73t138 167v350q-139 37 -215 37q-80 0 -148.5 -11.5t-127.5 -37t-100.5 -64t-65 -96t-23.5 -129.5zM870 553h693q8 62 8 100q0 84 -17 154t-53.5 128t-101.5 91t-154 33q-73 0 -136 -31t-106 -82t-73.5 -117t-45 -136t-14.5 -140z " />
<glyph unicode="&#xe7;" horiz-adv-x="1042" d="M129 537q0 257 124.5 410t334.5 153q201 0 338 -162l-29 -31q-123 152 -309 152q-193 0 -305.5 -141.5t-112.5 -380.5t113 -382t305 -143q186 0 309 152l29 -31q-137 -162 -338 -162q-19 0 -47 4l-25 -125q36 9 64 9q65 0 103 -33.5t38 -89.5q0 -68 -46 -105t-116 -37 q-63 0 -121 27l11 39q59 -25 110 -25q56 0 88.5 25t32.5 76q0 82 -102 82q-50 0 -105 -19l-4 6l35 172q-173 29 -274 179.5t-101 380.5z" />
<glyph unicode="&#xe8;" horiz-adv-x="1122" d="M127 532q0 164 56 292.5t163.5 202t251.5 73.5q81 0 147 -23.5t112 -64.5t77.5 -98t46 -122.5t14.5 -138.5q0 -76 -14 -141h-815q2 -112 29 -202.5t80 -158t138.5 -104.5t198.5 -37q184 0 342 144l25 -37q-156 -146 -367 -146q-126 0 -220.5 41.5t-151.5 118t-85 177 t-28 224.5zM166 553h782q8 62 8 100q0 82 -21.5 153.5t-63.5 129t-112 90.5t-161 33q-195 0 -311 -140.5t-121 -365.5zM463 1518h49l143 -261h-47z" />
<glyph unicode="&#xe9;" horiz-adv-x="1122" d="M127 532q0 164 56 292.5t163.5 202t251.5 73.5q81 0 147 -23.5t112 -64.5t77.5 -98t46 -122.5t14.5 -138.5q0 -76 -14 -141h-815q2 -112 29 -202.5t80 -158t138.5 -104.5t198.5 -37q184 0 342 144l25 -37q-156 -146 -367 -146q-126 0 -220.5 41.5t-151.5 118t-85 177 t-28 224.5zM166 553h782q8 62 8 100q0 82 -21.5 153.5t-63.5 129t-112 90.5t-161 33q-195 0 -311 -140.5t-121 -365.5zM563 1257l144 261h49l-146 -261h-47z" />
<glyph unicode="&#xea;" horiz-adv-x="1122" d="M127 532q0 164 56 292.5t163.5 202t251.5 73.5q81 0 147 -23.5t112 -64.5t77.5 -98t46 -122.5t14.5 -138.5q0 -76 -14 -141h-815q2 -112 29 -202.5t80 -158t138.5 -104.5t198.5 -37q184 0 342 144l25 -37q-156 -146 -367 -146q-126 0 -220.5 41.5t-151.5 118t-85 177 t-28 224.5zM166 553h782q8 62 8 100q0 82 -21.5 153.5t-63.5 129t-112 90.5t-161 33q-195 0 -311 -140.5t-121 -365.5zM389 1257l197 261h49l194 -261h-55l-166 222l-164 -222h-55z" />
<glyph unicode="&#xeb;" horiz-adv-x="1122" d="M127 532q0 164 56 292.5t163.5 202t251.5 73.5q81 0 147 -23.5t112 -64.5t77.5 -98t46 -122.5t14.5 -138.5q0 -76 -14 -141h-815q2 -112 29 -202.5t80 -158t138.5 -104.5t198.5 -37q184 0 342 144l25 -37q-156 -146 -367 -146q-126 0 -220.5 41.5t-151.5 118t-85 177 t-28 224.5zM166 553h782q8 62 8 100q0 82 -21.5 153.5t-63.5 129t-112 90.5t-161 33q-195 0 -311 -140.5t-121 -365.5zM354 1378q0 54 41 54q37 0 37 -54q0 -26 -10.5 -39.5t-26.5 -13.5q-41 0 -41 53zM784 1378q0 54 41 54q37 0 37 -54q0 -26 -10.5 -39.5t-26.5 -13.5 q-41 0 -41 53z" />
<glyph unicode="&#xec;" horiz-adv-x="417" d="M51 1518h49l144 -261h-47zM188 0v1071h41v-1071h-41z" />
<glyph unicode="&#xed;" horiz-adv-x="417" d="M188 0v1071h41v-1071h-41zM188 1257l144 261h49l-145 -261h-48z" />
<glyph unicode="&#xee;" horiz-adv-x="417" d="M-12 1257l196 261h49l195 -261h-55l-166 222l-164 -222h-55zM188 0v1071h41v-1071h-41z" />
<glyph unicode="&#xef;" horiz-adv-x="417" d="M-45 1378q0 54 41 54q37 0 37 -54q0 -26 -10.5 -39.5t-26.5 -13.5q-41 0 -41 53zM188 0v1071h41v-1071h-41zM385 1378q0 54 41 54q37 0 37 -54q0 -26 -10.5 -39.5t-26.5 -13.5q-41 0 -41 53z" />
<glyph unicode="&#xf0;" horiz-adv-x="1122" d="M135 463q0 220 103 343.5t278 123.5q68 0 131 -25.5t106.5 -62t82.5 -87t60.5 -89t39.5 -78.5q4 70 4 110q0 175 -55 320.5t-148 249.5l-133 -158l-24 29l131 157q-94 97 -211 144l18 35q117 -46 219 -148l127 152l27 -29l-127 -152q98 -110 157.5 -263.5t59.5 -336.5 q0 -328 -122.5 -523t-336.5 -195q-167 0 -277 136t-110 347zM176 463q0 -191 98.5 -317t247.5 -126q165 0 271.5 136t136.5 370q-13 32 -29.5 67t-54.5 91.5t-81.5 99t-109 74t-137.5 31.5q-152 0 -247 -112t-95 -314z" />
<glyph unicode="&#xf1;" horiz-adv-x="1161" d="M188 0v1071h41v-221q53 117 149 178.5t230 61.5q183 0 278 -109t95 -313v-668h-41v668q0 184 -84 282.5t-250 98.5q-144 0 -242 -85t-135 -223v-741h-41zM336 1346q60 122 149 122q28 0 55 -15.5t49.5 -38t44 -44.5t45.5 -37.5t46 -15.5q76 0 123 108l26 -26 q-58 -123 -147 -123q-28 0 -55.5 15.5t-50 38t-44 44.5t-45.5 37.5t-47 15.5q-72 0 -123 -108z" />
<glyph unicode="&#xf2;" horiz-adv-x="1214" d="M127 532q0 257 132.5 412.5t344.5 155.5q217 0 350 -155t133 -413q0 -255 -133 -408t-350 -153q-213 0 -345 153.5t-132 407.5zM166 532q0 -236 121.5 -378t316.5 -142q198 0 320.5 142t122.5 378q0 240 -122.5 383.5t-320.5 143.5q-195 0 -316.5 -144t-121.5 -383z M440 1518h49l144 -261h-47z" />
<glyph unicode="&#xf3;" horiz-adv-x="1214" d="M127 532q0 257 132.5 412.5t344.5 155.5q217 0 350 -155t133 -413q0 -255 -133 -408t-350 -153q-213 0 -345 153.5t-132 407.5zM166 532q0 -236 121.5 -378t316.5 -142q198 0 320.5 142t122.5 378q0 240 -122.5 383.5t-320.5 143.5q-195 0 -316.5 -144t-121.5 -383z M582 1257l143 261h49l-145 -261h-47z" />
<glyph unicode="&#xf4;" horiz-adv-x="1214" d="M127 532q0 257 132.5 412.5t344.5 155.5q217 0 350 -155t133 -413q0 -255 -133 -408t-350 -153q-213 0 -345 153.5t-132 407.5zM166 532q0 -236 121.5 -378t316.5 -142q198 0 320.5 142t122.5 378q0 240 -122.5 383.5t-320.5 143.5q-195 0 -316.5 -144t-121.5 -383z M387 1257l197 261h49l194 -261h-55l-166 222l-164 -222h-55z" />
<glyph unicode="&#xf5;" horiz-adv-x="1214" d="M127 532q0 257 132.5 412.5t344.5 155.5q217 0 350 -155t133 -413q0 -255 -133 -408t-350 -153q-213 0 -345 153.5t-132 407.5zM166 532q0 -236 121.5 -378t316.5 -142q198 0 320.5 142t122.5 378q0 240 -122.5 383.5t-320.5 143.5q-195 0 -316.5 -144t-121.5 -383z M336 1346q60 122 149 122q28 0 55 -15.5t49.5 -38t44 -44.5t45.5 -37.5t46 -15.5q76 0 123 108l26 -26q-58 -123 -147 -123q-28 0 -55.5 15.5t-50 38t-44 44.5t-45.5 37.5t-47 15.5q-72 0 -123 -108z" />
<glyph unicode="&#xf6;" horiz-adv-x="1214" d="M127 532q0 257 132.5 412.5t344.5 155.5q217 0 350 -155t133 -413q0 -255 -133 -408t-350 -153q-213 0 -345 153.5t-132 407.5zM166 532q0 -236 121.5 -378t316.5 -142q198 0 320.5 142t122.5 378q0 240 -122.5 383.5t-320.5 143.5q-195 0 -316.5 -144t-121.5 -383z M352 1378q0 54 41 54q37 0 37 -54q0 -26 -10.5 -39.5t-26.5 -13.5q-41 0 -41 53zM782 1378q0 54 41 54q37 0 37 -54q0 -26 -10.5 -39.5t-26.5 -13.5q-41 0 -41 53z" />
<glyph unicode="&#xf7;" horiz-adv-x="1110" d="M168 598v41h772v-41h-772zM473 285q0 80 62 80q63 0 63 -80t-63 -80q-62 0 -62 80zM473 954q0 80 62 80q63 0 63 -80t-63 -80q-62 0 -62 80z" />
<glyph unicode="&#xf8;" horiz-adv-x="1214" d="M127 532q0 257 132.5 412.5t344.5 155.5q189 0 316 -121l61 90h41v-6l-76 -111q141 -154 141 -420q0 -255 -133 -408t-350 -153q-159 0 -274 86l-39 -57h-41v6l51 76q-83 73 -128.5 188t-45.5 262zM166 532q0 -134 42 -241t118 -176l569 829q-118 115 -291 115 q-195 0 -316.5 -144t-121.5 -383zM354 92q110 -80 250 -80q198 0 320.5 142t122.5 378q0 242 -125 386z" />
<glyph unicode="&#xf9;" horiz-adv-x="1159" d="M178 403v668h41v-668q0 -184 84 -282t250 -98q144 0 242 84.5t135 222.5v741h41v-1071h-41v221q-109 -239 -379 -239q-183 0 -278 108.5t-95 312.5zM416 1518h49l143 -261h-47z" />
<glyph unicode="&#xfa;" horiz-adv-x="1159" d="M178 403v668h41v-668q0 -184 84 -282t250 -98q144 0 242 84.5t135 222.5v741h41v-1071h-41v221q-109 -239 -379 -239q-183 0 -278 108.5t-95 312.5zM543 1257l143 261h49l-145 -261h-47z" />
<glyph unicode="&#xfb;" horiz-adv-x="1159" d="M178 403v668h41v-668q0 -184 84 -282t250 -98q144 0 242 84.5t135 222.5v741h41v-1071h-41v221q-109 -239 -379 -239q-183 0 -278 108.5t-95 312.5zM358 1257l197 261h49l195 -261h-56l-165 222l-164 -222h-56z" />
<glyph unicode="&#xfc;" horiz-adv-x="1159" d="M178 403v668h41v-668q0 -184 84 -282t250 -98q144 0 242 84.5t135 222.5v741h41v-1071h-41v221q-109 -239 -379 -239q-183 0 -278 108.5t-95 312.5zM319 1378q0 54 41 54q37 0 37 -54q0 -26 -10.5 -39.5t-26.5 -13.5q-41 0 -41 53zM750 1378q0 54 41 54q36 0 36 -54 q0 -53 -36 -53q-41 0 -41 53z" />
<glyph unicode="&#xfd;" horiz-adv-x="1067" d="M29 -342l14 37q85 -60 193 -60q95 0 148.5 62t102.5 197l35 104l-452 1073h45l430 -1024l381 1024h45l-443 -1188q-27 -72 -52 -119.5t-59 -89t-78.5 -61t-102.5 -19.5q-124 0 -207 64zM506 1257l143 261h49l-145 -261h-47z" />
<glyph unicode="&#xfe;" horiz-adv-x="1144" d="M188 -385v1839h41v-516q58 68 145 112t187 44q207 0 332 -150.5t125 -406.5t-125 -404.5t-332 -148.5q-100 0 -186.5 43t-145.5 110v-522h-41zM229 193q51 -70 140.5 -119t189.5 -49q192 0 305 139t113 379q0 236 -113 373t-305 137q-100 0 -189.5 -49t-140.5 -119v-692z " />
<glyph unicode="&#xff;" horiz-adv-x="1067" d="M29 -342l14 37q85 -60 193 -60q95 0 148.5 62t102.5 197l35 104l-452 1073h45l430 -1024l381 1024h45l-443 -1188q-27 -72 -52 -119.5t-59 -89t-78.5 -61t-102.5 -19.5q-124 0 -207 64zM285 1378q0 54 41 54q36 0 36 -54q0 -53 -36 -53q-41 0 -41 53zM715 1378 q0 54 41 54q37 0 37 -54q0 -26 -10.5 -39.5t-26.5 -13.5q-41 0 -41 53z" />
<glyph unicode="&#x152;" horiz-adv-x="2134" d="M125 694q0 203 79.5 368t218.5 258t310 93q246 0 408 -162v142h874v-41h-833v-598h706v-41h-706v-672h833v-41h-874v139q-155 -159 -408 -159q-171 0 -310 93t-218.5 256.5t-79.5 364.5zM166 694q0 -191 73.5 -345.5t203 -241.5t290.5 -87q258 0 408 175v999 q-150 178 -408 178q-161 0 -290.5 -87.5t-203 -242.5t-73.5 -348z" />
<glyph unicode="&#x153;" horiz-adv-x="2048" d="M127 532q0 257 132.5 412.5t344.5 155.5q177 0 300.5 -105t164.5 -288q39 179 158.5 286t294.5 107q81 0 147 -23.5t112 -64.5t77.5 -98t46 -122.5t14.5 -138.5q0 -76 -14 -141h-815q2 -242 116.5 -371t329.5 -129q101 0 181 34.5t161 107.5l25 -37q-156 -146 -367 -146 q-200 0 -317 101.5t-152 279.5q-43 -178 -166.5 -279.5t-296.5 -101.5q-213 0 -345 153.5t-132 407.5zM166 532q0 -236 121.5 -378t316.5 -142q198 0 320.5 142t122.5 378q0 240 -122.5 383.5t-320.5 143.5q-195 0 -316.5 -144t-121.5 -383zM1090 553h782q8 62 8 100 q0 79 -22.5 150.5t-65.5 129t-112.5 92t-157.5 34.5q-195 0 -311 -140.5t-121 -365.5z" />
<glyph unicode="&#x178;" horiz-adv-x="1208" d="M70 1386v7h47l487 -742l490 742h45v-7l-514 -772v-614h-41v612zM352 1700q0 53 41 53q37 0 37 -53q0 -26 -10.5 -39.5t-26.5 -13.5q-41 0 -41 53zM782 1700q0 53 41 53q37 0 37 -53q0 -26 -10.5 -39.5t-26.5 -13.5q-41 0 -41 53z" />
<glyph unicode="&#x2c6;" horiz-adv-x="1044" d="M301 1257l197 261h49l194 -261h-55l-166 222l-164 -222h-55z" />
<glyph unicode="&#x2dc;" horiz-adv-x="1044" d="M252 1346q60 122 149 122q28 0 55 -15.5t49.5 -38t44 -44.5t45.5 -37.5t46 -15.5q76 0 123 108l27 -26q-58 -123 -148 -123q-28 0 -55.5 15.5t-50 38t-44 44.5t-45.5 37.5t-47 15.5q-71 0 -122 -108z" />
<glyph unicode="&#x2000;" horiz-adv-x="919" />
<glyph unicode="&#x2001;" horiz-adv-x="1839" />
<glyph unicode="&#x2002;" horiz-adv-x="919" />
<glyph unicode="&#x2003;" horiz-adv-x="1839" />
<glyph unicode="&#x2004;" horiz-adv-x="613" />
<glyph unicode="&#x2005;" horiz-adv-x="459" />
<glyph unicode="&#x2006;" horiz-adv-x="306" />
<glyph unicode="&#x2007;" horiz-adv-x="306" />
<glyph unicode="&#x2008;" horiz-adv-x="229" />
<glyph unicode="&#x2009;" horiz-adv-x="367" />
<glyph unicode="&#x200a;" horiz-adv-x="102" />
<glyph unicode="&#x2010;" horiz-adv-x="948" d="M166 598v43h616v-43h-616z" />
<glyph unicode="&#x2011;" horiz-adv-x="948" d="M166 598v43h616v-43h-616z" />
<glyph unicode="&#x2012;" horiz-adv-x="948" d="M166 598v43h616v-43h-616z" />
<glyph unicode="&#x2013;" horiz-adv-x="1103" d="M166 598v43h772v-43h-772z" />
<glyph unicode="&#x2014;" horiz-adv-x="1490" d="M166 598v43h1159v-43h-1159z" />
<glyph unicode="&#x2018;" horiz-adv-x="425" d="M143 1026q0 67 38.5 204t62.5 183l30 -14l-84 -303q39 0 60.5 -20t21.5 -50q0 -80 -63 -80q-32 0 -49 23.5t-17 56.5z" />
<glyph unicode="&#x2019;" horiz-adv-x="421" d="M154 956l86 304q-38 0 -59 20t-21 49q0 80 63 80q31 0 48.5 -23.5t17.5 -56.5q0 -66 -40 -203t-65 -184z" />
<glyph unicode="&#x201a;" horiz-adv-x="454" d="M158 -330l86 303q-38 0 -59 20t-21 50q0 80 63 80q31 0 48.5 -23.5t17.5 -56.5q0 -66 -40 -203t-65 -184z" />
<glyph unicode="&#x201c;" horiz-adv-x="704" d="M143 1026q0 67 38.5 204t62.5 183l30 -14l-84 -303q38 0 59 -20t21 -50q0 -80 -63 -80q-31 0 -47.5 23.5t-16.5 56.5zM422 1026q0 66 38 202.5t62 184.5l31 -14l-82 -303q38 0 59 -20t21 -50q0 -80 -64 -80q-31 0 -48 23.5t-17 56.5z" />
<glyph unicode="&#x201d;" horiz-adv-x="698" d="M156 956l82 304q-38 0 -59 20t-21 49q0 80 63 80q31 0 47.5 -23.5t16.5 -56.5q0 -66 -38 -202.5t-61 -184.5zM434 956l84 304q-39 0 -59.5 19.5t-20.5 49.5q0 80 62 80q31 0 48 -23.5t17 -56.5q0 -66 -38 -202.5t-62 -184.5z" />
<glyph unicode="&#x201e;" horiz-adv-x="733" d="M162 -330l82 303q-38 0 -59 20t-21 50q0 80 63 80q31 0 47.5 -23.5t16.5 -56.5q0 -66 -37.5 -203t-60.5 -184zM440 -330l84 303q-39 0 -59.5 20t-20.5 50q0 80 62 80q31 0 48 -23.5t17 -56.5q0 -67 -38 -204.5t-62 -182.5z" />
<glyph unicode="&#x2022;" horiz-adv-x="626" d="M209 618q0 64 26 98t76 34q51 0 79 -34t28 -98q0 -133 -107 -133q-102 0 -102 133z" />
<glyph unicode="&#x2026;" horiz-adv-x="1161" d="M166 49q0 38 16 59t45 21q31 0 48.5 -21t17.5 -59q0 -80 -66 -80q-61 0 -61 80zM516 49q0 38 16.5 59t45.5 21q65 0 65 -80t-65 -80q-62 0 -62 80zM868 49q0 38 16.5 59t45.5 21q31 0 48 -21t17 -59q0 -80 -65 -80q-62 0 -62 80z" />
<glyph unicode="&#x202f;" horiz-adv-x="367" />
<glyph unicode="&#x2039;" horiz-adv-x="561" d="M127 612v17l274 397h7l14 -33l-252 -372l254 -373l-16 -33h-7z" />
<glyph unicode="&#x203a;" horiz-adv-x="561" d="M137 993l17 33h6l274 -397v-17l-274 -397h-6l-15 33l252 373z" />
<glyph unicode="&#x205f;" horiz-adv-x="459" />
<glyph unicode="&#x20ac;" horiz-adv-x="1126" d="M115 557v41h92q-2 31 -2 96q0 59 2 88h-92v41h94q23 286 140.5 438t301.5 152q209 0 336 -127l-20 -41q-122 127 -316 127q-167 0 -273.5 -140t-127.5 -409h561l-18 -41h-545q-2 -29 -2 -88q0 -65 2 -96h473l-16 -41h-453q23 -259 129 -396.5t270 -137.5q190 0 322 112 l20 -35q-141 -120 -342 -120q-182 0 -300 148.5t-142 428.5h-94z" />
<glyph unicode="&#x2122;" horiz-adv-x="1495" d="M145 1317v41h455v-41h-203v-586h-37v586h-215zM748 731v627h36l246 -359l246 359h37v-627h-37v565l-240 -352h-12l-240 352v-565h-36z" />
<glyph unicode="&#x25fc;" horiz-adv-x="1075" d="M0 0v1075h1075v-1075h-1075z" />
<glyph unicode="&#xfb01;" horiz-adv-x="1187" d="M94 956v39h205v166q0 147 68.5 230.5t197.5 83.5q73 0 132.5 -34.5t97.5 -82.5l-27 -29q-94 109 -201 109q-114 0 -170.5 -71.5t-56.5 -205.5v-166h385v-39h-385v-956h-41v956h-205zM942 1378q0 54 41 54q37 0 37 -54q0 -26 -10.5 -39.5t-26.5 -13.5q-41 0 -41 53zM961 0 v1071h40v-1071h-40z" />
<glyph unicode="&#xfb02;" horiz-adv-x="1290" d="M94 956v39h205v166q0 147 68.5 230.5t197.5 83.5q73 0 132.5 -34.5t97.5 -82.5l-27 -29q-94 109 -201 109q-114 0 -170.5 -71.5t-56.5 -205.5v-166h385v-39h-385v-956h-41v956h-205zM956 182v1272h41v-1274q0 -89 28.5 -124.5t86.5 -35.5q41 0 71.5 13t67.5 39l17 -35 q-28 -23 -71.5 -40t-84.5 -17q-76 0 -116 47t-40 155z" />
</font>
</defs>
</svg>
